<?xml version="1.0" encoding="UTF-8"?>
<svg version="1.1" xmlns="http://www.w3.org/2000/svg" width="1600" height="320">
<path d="M0 0 C7.53717592 2.77966267 14.45568396 6.48635237 21.3203125 10.62109375 C29.74300955 15.67669847 38.85629685 18.0777315 48.3203125 20.49609375 C48.9915918 20.67011719 49.66287109 20.84414062 50.35449219 21.0234375 C58.10193178 22.98769144 65.67340151 23.91321888 73.65234375 24.28515625 C76.3203125 24.49609375 76.3203125 24.49609375 77.3203125 25.49609375 C79.64849214 25.86370106 81.982151 26.19850956 84.3203125 26.49609375 C84.86612131 31.04450049 85.18756682 35.25080697 82.3203125 39.05859375 C77.42404996 43.14640364 70.6872466 42.28665095 64.68847656 41.78222656 C59.62452943 41.17037646 54.63228909 40.11190831 49.67529297 38.92041016 C38.68606192 36.3739869 27.69524613 37.54661 16.56713867 38.61303711 C14.5214446 38.80729923 12.47482448 38.98714367 10.42773438 39.16601562 C-4.56511673 40.16640932 -4.56511673 40.16640932 -18.6796875 44.49609375 C-18.2465625 45.25148437 -17.8134375 46.006875 -17.3671875 46.78515625 C-11.98375324 57.42740823 -10.98639676 68.66614892 -12.6796875 80.49609375 C-14.42412234 84.69031784 -16.4111966 85.86338775 -20.44140625 87.7421875 C-24.01254306 88.94503114 -26.93690264 88.82440821 -30.6796875 88.49609375 C-31.0096875 88.16609375 -31.3396875 87.83609375 -31.6796875 87.49609375 C-33.03222579 87.38954806 -34.38702119 87.31117892 -35.7421875 87.24609375 C-39.43324536 86.89623045 -41.64816187 86.11877166 -44.6796875 83.99609375 C-48.81712773 81.20496343 -52.63129073 79.58223634 -57.6796875 80.49609375 C-59.96387308 82.01168758 -61.78835977 83.72859823 -63.75 85.640625 C-69.88394991 91.53865376 -76.24875315 91.98839779 -84.42553711 92.16943359 C-89.12260279 92.28663175 -93.25682289 92.7247337 -97.6796875 94.49609375 C-101.21669107 99.04885219 -101.84957198 104.95380636 -102.1796875 110.55859375 C-102.93641162 122.90265599 -109.99665057 130.49826534 -118.9609375 138.484375 C-122.67943642 141.62287408 -126.65248812 144.08324646 -130.8671875 146.49609375 C-131.54587891 146.89570313 -132.22457031 147.2953125 -132.92382812 147.70703125 C-143.90409949 154.08594931 -155.07196709 158.99261039 -167.1171875 162.93359375 C-167.82945496 163.16876709 -168.54172241 163.40394043 -169.27557373 163.64624023 C-190.444274 170.60668237 -211.85245012 175.98925734 -234.06860352 178.22781372 C-235.6724996 178.39260861 -237.27549338 178.56693296 -238.8765564 178.7572937 C-246.01041184 179.56920615 -253.09473686 179.67422246 -260.26953125 179.69921875 C-261.56750137 179.70491882 -262.8654715 179.7106189 -264.20277405 179.7164917 C-266.94858176 179.72694008 -269.69436082 179.73281944 -272.44018555 179.73632812 C-275.19455562 179.74066508 -277.94860399 179.75437974 -280.70288086 179.77734375 C-339.29963441 180.25557937 -406.65583003 168.67449571 -455.6796875 134.49609375 C-456.29376465 134.07706787 -456.9078418 133.65804199 -457.54052734 133.22631836 C-460.75869505 130.99389953 -463.55377887 128.85864369 -466.0546875 125.80859375 C-469.50365879 121.68703395 -473.11221252 117.73770182 -476.76171875 113.79296875 C-478.4760984 111.7399031 -479.62193545 109.936199 -480.6796875 107.49609375 C-476.63761985 107.69819713 -474.31154884 108.60234105 -471.26953125 111.125 C-465.83884366 115.30781138 -459.86384526 118.26649906 -453.7421875 121.30859375 C-453.13120209 121.61323547 -452.52021667 121.9178772 -451.89071655 122.23175049 C-440.45942575 127.90305124 -428.81463996 132.51574682 -416.68603516 136.50341797 C-413.78103908 137.46262814 -410.89255469 138.46154692 -408.00390625 139.46875 C-379.46107662 149.22181117 -349.66229712 156.21363508 -319.6796875 159.49609375 C-318.41092773 159.66898926 -317.14216797 159.84188477 -315.83496094 160.02001953 C-308.79468312 160.7953739 -301.70721175 160.70240739 -294.6328125 160.734375 C-293.86085289 160.73845053 -293.08889328 160.74252605 -292.29354095 160.74672508 C-288.18820984 160.76751733 -284.08291123 160.78183497 -279.97753906 160.79125977 C-276.64791998 160.80001854 -273.3187321 160.82065786 -269.98925781 160.8527832 C-239.94133852 161.13611467 -211.83212015 158.37445364 -182.6796875 150.49609375 C-181.78958984 150.26164551 -180.89949219 150.02719727 -179.98242188 149.78564453 C-156.31528443 143.48655855 -127.08684836 132.51234441 -110.6796875 113.49609375 C-108.2392975 108.61531374 -108.92243137 101.19625277 -110.36328125 96.05859375 C-111.80100448 92.81327659 -113.51823368 89.77804724 -115.28125 86.69921875 C-119.1383504 79.64310143 -121.45138545 73.58230491 -119.6796875 65.49609375 C-118.0357657 62.43499798 -116.11753187 59.96296007 -113.6796875 57.49609375 C-109.68849803 59.02425188 -107.94525478 61.49589017 -105.4296875 64.87109375 C-100.70287967 70.83030363 -96.85480789 73.10438695 -89.6796875 75.49609375 C-79.74001185 76.45839078 -71.74153836 75.93760556 -63.6796875 69.49609375 C-58.74275024 64.65143569 -55.85238759 59.35313363 -53.6015625 52.85546875 C-51.30447066 46.97647099 -48.42564275 44.2826708 -42.9296875 41.30859375 C-42.33414062 40.96634766 -41.73859375 40.62410156 -41.125 40.27148438 C-34.86802239 36.78409967 -28.63179583 35.32096559 -21.49609375 34.6796875 C-20.83689438 34.61830093 -20.17769501 34.55691437 -19.4985199 34.4936676 C-17.41359226 34.30070242 -15.32799409 34.1167885 -13.2421875 33.93359375 C-10.4932856 33.68450749 -7.74470098 33.4320013 -4.99609375 33.1796875 C-3.72137207 33.06351074 -2.44665039 32.94733398 -1.13330078 32.82763672 C2.69800177 32.45983601 6.50659267 32.01279128 10.3203125 31.49609375 C10.3203125 29.18609375 10.3203125 26.87609375 10.3203125 24.49609375 C8.25157236 23.8298893 6.18268675 23.16413479 4.11328125 22.5 C1.3203125 21.49609375 1.3203125 21.49609375 -1.50390625 20.1484375 C-10.8019994 15.87441005 -18.37133513 16.41998864 -28.26660156 17.31738281 C-32.13416182 17.60381079 -35.99111945 17.59236734 -39.8671875 17.55859375 C-41.83751953 17.54505859 -41.83751953 17.54505859 -43.84765625 17.53125 C-45.24951172 17.51384766 -45.24951172 17.51384766 -46.6796875 17.49609375 C-44.60217474 9.48283023 -39.80813213 4.88870454 -33.6796875 -0.50390625 C-25.15408519 -4.76670741 -8.79949305 -2.72831679 0 0 Z M-44.1171875 57.99609375 C-44.6328125 58.82109375 -45.1484375 59.64609375 -45.6796875 60.49609375 C-41.86435239 67.10934128 -38.0177472 69.49373396 -30.6796875 71.49609375 C-27.420944 72.25163695 -27.420944 72.25163695 -24.6796875 71.49609375 C-22.27562366 69.11766798 -22.27562366 69.11766798 -20.6796875 66.49609375 C-22.07082745 65.22012443 -23.46783163 63.95054727 -24.8671875 62.68359375 C-26.03314453 61.62205078 -26.03314453 61.62205078 -27.22265625 60.5390625 C-30.84741897 57.52515009 -33.53406092 55.65688345 -38.2421875 54.99609375 C-41.85140207 55.16533251 -41.85140207 55.16533251 -44.1171875 57.99609375 Z " fill="#A32117" transform="translate(798.6796875,110.50390625)"/>
<path d="M0 0 C2.25 0.125 2.25 0.125 5 1 C6.38184364 2.96679585 7.70873115 4.97258723 9 7 C10.3872188 8.79834483 11.78339063 10.58981177 13.1875 12.375 C24.64186799 27.61609162 35.27426534 46.72993322 35.3359375 66.19140625 C35.3425943 66.94034653 35.3492511 67.6892868 35.35610962 68.46092224 C35.36615873 70.03145925 35.37092906 71.6020383 35.37060547 73.17260742 C35.37499623 75.56044968 35.41144233 77.9464658 35.44921875 80.33398438 C35.45508536 81.86978543 35.4590558 83.40559514 35.4609375 84.94140625 C35.47530853 85.64576309 35.48967957 86.35011993 35.50448608 87.07582092 C35.45452929 92.55091434 33.98500037 95.57781613 31 100 C26.26416996 103.75094504 18.11937159 102.87303239 12.34863281 102.40234375 C4.5958198 101.07421113 -2.56317279 96.29121814 -9 92 C-12.38610326 91.38473138 -12.38610326 91.38473138 -16 92 C-18.23113935 93.76718057 -19.85759131 95.26863029 -21.6875 97.375 C-28.02173062 104.37552416 -28.02173062 104.37552416 -32.9375 105.40625 C-38.10847034 105.64129411 -41.28313355 104.51697428 -45.8125 102 C-51.97820722 98.70953363 -57.08693883 97.56133592 -64 99 C-66.76528403 100.28890357 -69.16433628 101.72514643 -71.6484375 103.4921875 C-77.11495688 106.99729793 -82.44267265 107.38822568 -88.75 107.375 C-89.5455127 107.37338867 -90.34102539 107.37177734 -91.16064453 107.37011719 C-98.41358538 107.21922998 -104.95293905 106.13411984 -110.1875 100.75 C-111.95634088 98.73088824 -111.95634088 98.73088824 -115 98.375 C-118.67272029 98.56227477 -121.2471821 100.10705504 -124.4296875 101.8671875 C-130.88042196 105.16099235 -137.01406344 106.59799513 -144.125 107.75 C-145.2078125 107.94464844 -146.290625 108.13929688 -147.40625 108.33984375 C-150.93066873 108.95189316 -154.46014323 109.48499235 -158 110 C-159.19931152 110.18981445 -160.39862305 110.37962891 -161.63427734 110.57519531 C-176.51193026 112.71261517 -191.6118506 112.30419669 -206.60595703 112.26074219 C-210.59287794 112.24929022 -214.5795311 112.25596907 -218.56644249 112.26788712 C-221.68085699 112.27516563 -224.79520949 112.27279152 -227.90962601 112.26763153 C-229.37898416 112.26631462 -230.84834827 112.26787246 -232.31769943 112.27259064 C-242.83729795 112.29900341 -253.31966269 112.25899212 -263.0625 107.875 C-268.34751176 105.61972123 -273.31702702 104.92942424 -279 106 C-281.53005412 107.4140023 -282.96797164 108.86376506 -285 111 C-288.13794846 112.56897423 -290.5089681 112.27734116 -294 112 C-297.90074216 110.61831936 -301.54723503 108.69808046 -305.24023438 106.84375 C-311.65932949 103.77398632 -316.22627901 103.35917945 -323.3125 104.5625 C-326.30237344 105.78793295 -326.30237344 105.78793295 -327.2109375 109.08984375 C-331.64843105 120.13890486 -344.58855728 130.09366723 -355.21875 134.73828125 C-366.90020322 138.63612153 -381.09470643 142.884223 -393 138 C-390.72405156 135.72405156 -389.51013648 135.45592591 -386.4453125 134.65625 C-381.22847091 133.15877125 -376.64330225 131.06793629 -371.875 128.5 C-371.06168213 128.0656665 -370.24836426 127.63133301 -369.41040039 127.18383789 C-354.53606043 119.0741155 -334.27242708 107.62193177 -328 91 C-327.72498687 88.25397342 -327.56337129 85.5404277 -327.50390625 82.78125 C-326.27379971 75.99182478 -320.60966272 71.3294219 -315.875 66.6875 C-315.24207031 66.05521484 -314.60914063 65.42292969 -313.95703125 64.77148438 C-308.58660796 59.45237086 -305.66571655 58.54685797 -297.87817383 58.4831543 C-292.23819731 58.64771238 -289.18735601 59.95225658 -285.1171875 63.73828125 C-284.41851563 64.48464844 -283.71984375 65.23101562 -283 66 C-282.15695312 66.88042969 -281.31390625 67.76085937 -280.4453125 68.66796875 C-273.78521455 75.8320207 -273.78521455 75.8320207 -271.59765625 79.0859375 C-266.2562815 86.90175103 -255.30605032 88.19214365 -246.57421875 89.90234375 C-205.17142195 97.33785683 -147.02269525 101.3953254 -110.37109375 77.26953125 C-107.01278705 75.47142634 -104.6285654 76.21736825 -101 77 C-101.37125 78.60875 -101.37125 78.60875 -101.75 80.25 C-102.3668412 83.91616031 -102.3668412 83.91616031 -100.5625 86.25 C-93.4094844 91.13498627 -86.48687173 91.92463972 -78 91 C-68.88117832 89.19537562 -62.6580232 82.99554909 -57 76 C-55.50355625 73.25221967 -54.74975387 71.05668886 -54 68 C-51.36 68 -48.72 68 -46 68 C-45.81566406 68.54527344 -45.63132812 69.09054688 -45.44140625 69.65234375 C-42.75228329 76.64406344 -38.50553881 81.02383993 -33 86 C-24.3819291 83.57271972 -19.4513897 77.37927487 -15.0078125 69.859375 C-13.9603317 67.92681353 -12.96901847 65.97295653 -12 64 C-11.45472656 65.10408203 -11.45472656 65.10408203 -10.8984375 66.23046875 C-6.35021996 75.05867561 -3.03076915 79.22386327 6.4375 82.3125 C14.08222226 84.34402171 21.15091536 84.39575217 29 84 C30.70020943 75.88875697 28.95907932 71.35145175 25.1875 64.125 C24.68629639 63.12992432 24.18509277 62.13484863 23.66870117 61.10961914 C22.63348623 59.06346101 21.58860619 57.02216444 20.53417969 54.98583984 C19.08814312 52.17154526 17.69692359 49.3370297 16.3203125 46.48828125 C15.48604535 44.80385917 14.65019065 43.12022214 13.8125 41.4375 C13.44600342 40.67131348 13.07950684 39.90512695 12.7019043 39.11572266 C10.12678361 34.0979706 7.32116398 31.57285714 2.70532227 28.39233398 C1 27 1 27 -0.18359375 24.17578125 C-0.30927734 22.75845703 -0.30927734 22.75845703 -0.4375 21.3125 C-0.59798828 19.75982422 -0.59798828 19.75982422 -0.76171875 18.17578125 C-0.84035156 17.12777344 -0.91898438 16.07976562 -1 15 C-1.13019531 13.98292969 -1.26039063 12.96585938 -1.39453125 11.91796875 C-2.36723447 3.93325112 -2.36723447 3.93325112 0 0 Z M-316 75 C-316.39814636 78.47440615 -316.39814636 78.47440615 -315 82 C-310.34965286 86.50577676 -303.32379936 89.08235088 -297 90 C-294.07338701 89.67797786 -291.80271932 88.98614198 -289 88 C-293.06876737 78.34654751 -293.06876737 78.34654751 -301 72 C-309.44706849 70.62267398 -309.44706849 70.62267398 -316 75 Z " fill="#A32117" transform="translate(1530,90)"/>
<path d="M0 0 C16.20984791 7.99024727 30.69028213 12.30063146 48.82421875 12.51953125 C52.8125 12.625 52.8125 12.625 53.8125 13.625 C55.25275113 13.75755904 56.69882776 13.82823778 58.14453125 13.87109375 C59.02560547 13.90396484 59.90667969 13.93683594 60.81445312 13.97070312 C62.67632066 14.03151464 64.53830518 14.08885152 66.40039062 14.14257812 C67.72780273 14.19381836 67.72780273 14.19381836 69.08203125 14.24609375 C70.29789917 14.28367798 70.29789917 14.28367798 71.53833008 14.32202148 C73.99650632 14.64951442 75.67281156 15.39929966 77.8125 16.625 C77.97952456 20.96763862 77.94249997 23.83460634 75.8125 27.625 C75.20243607 27.64783554 74.59237213 27.67067108 73.96382141 27.69419861 C67.55478291 27.93460131 61.14588765 28.17858811 54.73706055 28.42456055 C52.35232913 28.51563005 49.96756383 28.6058171 47.58276367 28.69506836 C44.13450765 28.82427871 40.68639015 28.95677143 37.23828125 29.08984375 C36.18981522 29.12843002 35.14134918 29.1670163 34.06111145 29.20677185 C10.40893977 30.13344951 -6.85688642 36.41867617 -26.5 49.375 C-35.67248898 55.37668941 -43.9521193 59.52905546 -55.1875 57.625 C-61.88531414 55.09431722 -67.11991806 51.28569158 -71.84765625 45.9453125 C-75.93888362 43.63674013 -79.62093373 43.84038917 -84.1875 44.625 C-88.8129278 46.26131934 -93.22576654 48.25511325 -97.67129517 50.32382202 C-120.93033795 61.06343135 -143.76360015 64.40905932 -169.1875 66.625 C-170.04873978 66.70792297 -170.90997955 66.79084595 -171.7973175 66.87628174 C-179.33788526 67.56759832 -186.81667541 67.80015421 -194.38671875 67.828125 C-195.62001419 67.83382507 -196.85330963 67.83952515 -198.12397766 67.84539795 C-200.7249772 67.85479143 -203.32598834 67.86135925 -205.92700195 67.86523438 C-209.81939711 67.87486246 -213.71124563 67.9059097 -217.60351562 67.9375 C-229.80079506 67.98985342 -241.83418172 67.72825871 -253.95703125 66.296875 C-254.94869797 66.18015442 -255.94036469 66.06343384 -256.96208191 65.94317627 C-264.24510525 64.97643333 -271.66334938 63.69352319 -278.0625 59.9375 C-282.88896222 57.91038587 -288.03913635 57.71435629 -293.1875 58.625 C-293.82429688 59.28371094 -294.46109375 59.94242187 -295.1171875 60.62109375 C-298.42279433 63.82067168 -301.78564895 63.16370643 -306.18725586 63.09277344 C-313.83186922 62.80190073 -321.30695544 60.90097539 -327.5625 56.375 C-330.77869826 54.23086783 -332.39915681 53.88380242 -336.1875 54.625 C-338.43599786 56.73722526 -339.82174412 58.88921872 -341.19140625 61.64453125 C-344.63589322 68.4975001 -349.27045624 72.81622793 -355.1875 77.625 C-355.75210938 78.12 -356.31671875 78.615 -356.8984375 79.125 C-365.91316657 86.44660737 -378.61927855 88.70556621 -389.875 89.14257812 C-393.98088682 89.2483509 -393.98088682 89.2483509 -397.1875 91.625 C-399.87589385 91.89491906 -402.47891936 91.71237357 -405.1875 91.625 C-402.52883251 88.44915223 -399.1299547 86.97172701 -395.45703125 85.25390625 C-394.08935692 84.59736734 -392.72218793 83.93977493 -391.35546875 83.28125 C-390.64310059 82.93964844 -389.93073242 82.59804687 -389.19677734 82.24609375 C-376.5554691 76.15443866 -364.77092742 69.97649407 -354.1875 60.625 C-353.33671875 59.88765625 -352.4859375 59.1503125 -351.609375 58.390625 C-346.0860456 53.26465743 -342.26290694 47.98306673 -341.8125 40.3125 C-341.16939462 32.20377993 -336.61415781 25.58052035 -330.75 20.1875 C-329.24791023 18.97637795 -327.72849795 17.78621299 -326.1875 16.625 C-325.64609375 16.16996094 -325.1046875 15.71492188 -324.546875 15.24609375 C-318.94344638 11.18502301 -311.76334322 11.87846707 -305.1875 12.625 C-297.48913365 15.82054829 -291.62634131 24.5090936 -287 31.25 C-276.83912165 44.337027 -254.76508014 50.18054722 -239.05078125 52.3359375 C-238.10589844 52.43132812 -237.16101563 52.52671875 -236.1875 52.625 C-235.55086426 52.7075 -234.91422852 52.79 -234.25830078 52.875 C-197.20820503 57.29229905 -159.4074983 51.68863706 -123.20422363 44.04949951 C-121.34799132 43.65878177 -119.48998869 43.27649967 -117.63183594 42.89501953 C-105.54077819 40.35622927 -95.28902748 36.77658364 -84.73999023 30.23144531 C-79.89746055 27.26359232 -76.8920236 26.00296418 -71.1875 26.625 C-70.92195313 27.25148437 -70.65640625 27.87796875 -70.3828125 28.5234375 C-69.85300781 29.74933594 -69.85300781 29.74933594 -69.3125 31 C-68.96445312 31.81210938 -68.61640625 32.62421875 -68.2578125 33.4609375 C-67.26303933 35.76302299 -67.26303933 35.76302299 -65.1875 37.625 C-48.74896073 42.69415308 -32.9375693 39.36678803 -17.1875 33.625 C-16.14464844 33.25761719 -15.10179687 32.89023438 -14.02734375 32.51171875 C-8.45147129 30.41753481 -3.31281544 27.64571731 1.8125 24.625 C-1.80202705 20.61566585 -5.01938816 18.48575603 -10 16.4375 C-11.16144531 15.94894531 -12.32289063 15.46039063 -13.51953125 14.95703125 C-23.04434076 11.49807487 -31.2160161 11.54294537 -41.1875 12 C-42.64448947 12.05834441 -44.10152114 12.11564514 -45.55859375 12.171875 C-49.10213004 12.31087656 -52.64488573 12.46402992 -56.1875 12.625 C-56.35154729 6.49215512 -56.4094191 3.51353791 -52.1875 -1.375 C-49.25 -3.5625 -49.25 -3.5625 -46.1875 -5.375 C-45.300625 -5.931875 -44.41375 -6.48875 -43.5 -7.0625 C-29.96272822 -14.74581641 -12.45664737 -6.17622756 0 0 Z M-328.1875 28.625 C-329.57618516 30.72539331 -329.57618516 30.72539331 -330.1875 32.625 C-327.68288962 37.2167857 -325.34537922 39.7555165 -320.55859375 41.9453125 C-316.15769599 43.20685486 -311.71710396 42.9247532 -307.1875 42.625 C-306.5275 40.645 -305.8675 38.665 -305.1875 36.625 C-307.06849608 34.6090042 -308.96508672 32.61328018 -310.875 30.625 C-311.40544922 30.05265625 -311.93589844 29.4803125 -312.48242188 28.890625 C-315.64040385 25.56602945 -315.64040385 25.56602945 -319.8828125 24.140625 C-323.30709868 24.86030548 -325.47635286 26.45608229 -328.1875 28.625 Z " fill="#A32117" transform="translate(440.1875,134.375)"/>
<path d="M0 0 C2.51943818 2.22143541 3.56835698 3.99890274 4.54296875 7.19921875 C4.80827393 8.06297119 5.0735791 8.92672363 5.34692383 9.81665039 C5.62431396 10.76403076 5.9017041 11.71141113 6.1875 12.6875 C6.63162231 14.17914673 6.63162231 14.17914673 7.0847168 15.70092773 C9.68598851 24.6047865 12.03243383 33.5721217 14.3125 42.5625 C14.56850479 43.56015884 14.56850479 43.56015884 14.8296814 44.57797241 C16.91666115 52.74946477 18.53483414 60.80538266 19.49682617 69.18725586 C19.84165368 72.19528507 19.84165368 72.19528507 22 75 C22.1875 78.125 22.1875 78.125 22 81 C21.67 81.33 21.34 81.66 21 82 C20.72581878 83.80899998 20.48120926 85.62250729 20.25 87.4375 C19.30485431 93.46911677 17.48043103 100.51956897 13 105 C1.83764393 105.93019634 -5.63402677 105.34414767 -14.43359375 97.95703125 C-15.99535503 96.58518014 -17.53801495 95.19107201 -19.0546875 93.76953125 C-22.2370513 90.77302233 -22.2370513 90.77302233 -26.375 90.0625 C-31.37033689 91.84654889 -33.85793054 95.64509031 -36.4375 100.0625 C-38.71781072 103.86540064 -41.09322559 105.80243939 -45 108 C-45.886875 108.556875 -46.77375 109.11375 -47.6875 109.6875 C-53.16826052 112.79820192 -58.86151916 112.56428271 -65 112 C-68.23547511 111.0230703 -71.07438419 109.67900024 -74 108 C-74.84433594 107.57460937 -75.68867187 107.14921875 -76.55859375 106.7109375 C-79.53959544 104.62185152 -80.53967555 102.69044715 -82.125 99.4375 C-84.24592199 95.04496269 -84.24592199 95.04496269 -88 92 C-88.50789062 92.55429688 -89.01578125 93.10859375 -89.5390625 93.6796875 C-90.57160156 94.76636719 -90.57160156 94.76636719 -91.625 95.875 C-92.63433594 96.95394531 -92.63433594 96.95394531 -93.6640625 98.0546875 C-98.43266882 102.02586801 -103.70707753 102.30122372 -109.69921875 102.265625 C-110.41608353 102.26753845 -111.1329483 102.2694519 -111.87153625 102.27142334 C-113.37668207 102.27277686 -114.88183989 102.26913897 -116.38696289 102.26074219 C-118.69118276 102.2499828 -120.99463147 102.26068952 -123.29882812 102.2734375 C-124.76562672 102.27211668 -126.23242483 102.2695559 -127.69921875 102.265625 C-128.38674728 102.26967346 -129.07427582 102.27372192 -129.78263855 102.27789307 C-133.41652662 102.24215842 -134.88696011 102.07535993 -138 100 C-139.44097758 92.41531953 -138.3276954 85.50407606 -134.30078125 78.96875 C-127.20674497 69.8151548 -117.02486635 57.23588011 -105 55.125 C-99.78074927 54.04021455 -96.70830093 50.62402136 -93 47 C-92.41734375 46.52433594 -91.8346875 46.04867187 -91.234375 45.55859375 C-87.01455986 41.96355707 -86.14816417 38.726065 -85.51953125 33.26953125 C-84.91118553 30.61202099 -83.95933511 29.81330581 -82 28 C-81.9498877 29.09876465 -81.89977539 30.1975293 -81.84814453 31.32958984 C-81.65823955 35.44879117 -81.45824572 39.56745393 -81.25537109 43.68603516 C-81.16933133 45.46064559 -81.08594223 47.23538678 -81.00537109 49.01025391 C-80.78282755 69.01695043 -80.78282755 69.01695043 -71.1875 85.79296875 C-65.20934889 91.03630545 -60.7924454 91.51823209 -52.83984375 91.3359375 C-45.28497975 90.67498297 -40.96857519 87.31199149 -36 81.8125 C-32.84730025 77.99568989 -31.86065943 75.92084823 -31.875 70.9375 C-31.87242188 70.03902344 -31.86984375 69.14054687 -31.8671875 68.21484375 C-31.75261777 66.02621107 -31.75261777 66.02621107 -33 65 C-33.13504138 63.06440687 -33.23201129 61.126128 -33.3125 59.1875 C-33.69856376 53.31289652 -34.9519211 48.48494876 -37.16015625 43.046875 C-39.1778875 35.72673373 -37.80828823 27.88139767 -37 20.4375 C-36.90460938 19.52419922 -36.80921875 18.61089844 -36.7109375 17.66992188 C-36.47808125 15.44614468 -36.24104145 13.22290224 -36 11 C-33.74068906 13.25931094 -33.4417458 14.4636274 -32.625 17.5 C-31.63182655 21.03912569 -30.46101134 24.28346956 -28.9375 27.625 C-27.13812881 31.94483869 -26.5777359 35.91166756 -26.125 40.5625 C-24.69193435 55.06450128 -19.2944893 70.28506011 -8.74609375 80.58984375 C-4.50083394 84.01834216 -0.59421106 84.38254052 4.75 84.625 C5.44738281 84.66367188 6.14476562 84.70234375 6.86328125 84.7421875 C8.57510818 84.83598624 10.28751682 84.91906174 12 85 C14.63605959 74.35155218 10.5595451 65.70976814 6.75 55.9375 C6.1424004 54.3386988 5.53691578 52.73909216 4.93359375 51.13867188 C4.64023132 50.36112549 4.3468689 49.5835791 4.0446167 48.7824707 C2.92872331 45.81913734 1.81395279 42.85541531 0.70715332 39.88867188 C0.10683875 38.28534596 -0.50448068 36.68614726 -1.11816406 35.08789062 C-3.43464812 28.45492708 -3.01950271 22.54197435 -2.25 15.625 C-2.14945313 14.55894531 -2.04890625 13.49289063 -1.9453125 12.39453125 C-1.53148367 8.17666053 -1.12800337 4.0941014 0 0 Z M-112.0625 68.9375 C-112.77615723 69.24880859 -113.48981445 69.56011719 -114.22509766 69.88085938 C-119.11262541 72.15606784 -121.81955595 74.64161371 -125 79 C-123.57739627 82.4783786 -123.57739627 82.4783786 -121 85 C-116.95679753 85.60403159 -113.05434855 85.48455906 -109 85 C-108.67 84.67 -108.34 84.34 -108 84 C-105.62505816 83.97334853 -103.25003566 83.95376737 -100.875 83.9375 C-96.05400454 83.70627446 -92.17632864 83.3391877 -88.5625 79.875 C-84.41378506 74.09643276 -85.44669536 66.74504705 -86 60 C-94.69366323 60 -104.19329807 65.37628028 -112.0625 68.9375 Z " fill="#A32117" transform="translate(1106,102)"/>
<path d="M0 0 C8.35151515 4.41212121 8.35151515 4.41212121 10 8 C10.40178439 11.06148384 10.54673382 13.95544302 10 17 C9.50681274 17.60228928 9.01362549 18.20457855 8.50549316 18.82511902 C5.7261707 22.84021235 6.45001582 27.62517431 6.46875 32.36328125 C6.47209351 33.51024979 6.47543701 34.65721832 6.47888184 35.83894348 C6.75799246 49.9088553 9.64867061 63.45362578 12.5 77.1875 C18.48484973 106.13496567 18.48484973 106.13496567 18.53125 119.73828125 C18.5355603 120.63677292 18.53987061 121.53526459 18.54431152 122.46098328 C18.35249714 130.99354345 16.51286807 139.31773567 11 146 C6.84823364 148.87353758 1.87058508 148.3546246 -2.98046875 148.390625 C-8.13317254 148.56529293 -10.97251409 149.84779737 -15 153 C-16.3303125 153.9590625 -16.3303125 153.9590625 -17.6875 154.9375 C-20.16797686 158.22245584 -20.58648264 160.02873986 -21.375 164 C-24.67812163 179.80525941 -35.17048483 192.60685755 -48.53515625 201.46875 C-59.62305815 208.04335039 -70.58975074 208.45439327 -83.0625 205.6875 C-86.47401649 204.80427303 -89.39819179 203.82150023 -92.625 202.375 C-96.69739695 200.71587532 -100.27998428 200.55073155 -104.64453125 200.40625 C-105.42183594 200.2721875 -106.19914062 200.138125 -107 200 C-107.66 199.01 -108.32 198.02 -109 197 C-108.12899658 196.9906543 -107.25799316 196.98130859 -106.3605957 196.97167969 C-103.06297899 196.92710844 -99.76655336 196.86525687 -96.46948242 196.79248047 C-95.05488497 196.76462082 -93.64014197 196.74323631 -92.2253418 196.72900391 C-71.41280687 196.50735817 -54.28284883 189.32159598 -39.5234375 174.515625 C-37.25609749 172.07387422 -35.10512891 169.58245466 -33 167 C-32.37609375 166.23558594 -31.7521875 165.47117188 -31.109375 164.68359375 C-27.71031668 160.11710185 -26.34372413 156.76231042 -26.59375 151.04296875 C-27.06448649 148.67570739 -27.70670647 147.04356959 -29 145 C-30.04414062 144.41798828 -30.04414062 144.41798828 -31.109375 143.82421875 C-33.4198881 141.59486003 -33.29824082 140.89277628 -33.390625 137.76953125 C-33.36407407 136.11673599 -33.31642461 134.46417337 -33.25 132.8125 C-33.23195313 131.96751953 -33.21390625 131.12253906 -33.1953125 130.25195312 C-33.14820586 128.16748427 -33.07646233 126.08359856 -33 124 C-28.8510891 125.24406935 -25.59472826 126.84130091 -21.9375 129.125 C-15.99965557 132.16870615 -10.69414529 132.62707239 -4.0625 132.6875 C-3.15040771 132.70635254 -2.23831543 132.72520508 -1.29858398 132.74462891 C3.17288333 132.66767018 5.38863617 132.43811841 9.1015625 129.77734375 C11.15332607 126.77568964 11.60716014 125.45428177 11.4375 121.875 C11.41558594 121.02679688 11.39367187 120.17859375 11.37109375 119.3046875 C11.12028411 116.73043567 11.12028411 116.73043567 9 114 C8.45146179 111.7487793 8.45146179 111.7487793 8.02612305 109.07421875 C7.8620697 108.0650238 7.69801636 107.05582886 7.5289917 106.01605225 C7.35829163 104.91763 7.18759155 103.81920776 7.01171875 102.6875 C6.82804749 101.54283264 6.64437622 100.39816528 6.45513916 99.21881104 C5.85782458 95.48044237 5.27190513 91.740407 4.6875 88 C4.2827795 85.4332452 3.87791253 82.86651349 3.47290039 80.29980469 C2.48177835 73.99921261 1.50251455 67.69683928 0.52709961 61.39379883 C0.05349374 58.34442637 -0.42566429 55.29601624 -0.90820312 52.24804688 C-5.38653658 23.90312489 -5.38653658 23.90312489 -5.625 11 C-5.65992554 9.80552246 -5.65992554 9.80552246 -5.69555664 8.58691406 C-5.6640625 6.4375 -5.6640625 6.4375 -5 3 C-2.4609375 1 -2.4609375 1 0 0 Z " fill="#A32117" transform="translate(562,49)"/>
<path d="M0 0 C6.07955667 3.09938183 10.74093889 6.22281667 13 13 C12.42331807 15.12416007 11.76420065 17.22629909 11.0625 19.3125 C8.7350276 27.0841639 7.08532976 35.80193943 9.97265625 43.640625 C11.5379602 48.7591094 11.53045383 53.92637852 11.8125 59.25 C12.32678631 67.35452073 13.12141478 74.97061706 15.5 82.75 C15.72171875 83.47743408 15.9434375 84.20486816 16.171875 84.9543457 C16.59640721 86.33900071 17.02135292 87.72352902 17.44677734 89.10791016 C20.27515429 98.78130881 20.21253342 108.75669705 20.3125 118.75 C20.33030518 119.89911865 20.34811035 121.0482373 20.36645508 122.23217773 C20.35755901 131.69827348 19.17506082 140.51507779 13 148 C10.14128176 149.75148676 7.95915337 150.25336038 4.62890625 150.30859375 C3.80712891 150.33373047 2.98535156 150.35886719 2.13867188 150.38476562 C0.42520423 150.4198404 -1.28834569 150.45110835 -3.00195312 150.47851562 C-9.53617175 150.6559717 -9.53617175 150.6559717 -15 154 C-17.49392939 158.67116933 -18.56118 163.18239575 -19.4375 168.375 C-21.78409838 180.9373798 -27.55277876 191.21369547 -37 200 C-38.66279327 201.0064275 -40.32983484 202.00585407 -42 203 C-43.3303125 204.2065625 -43.3303125 204.2065625 -44.6875 205.4375 C-52.3590574 211.8304645 -61.00223347 212.97128732 -70.75927734 212.24511719 C-79.5152348 211.28728528 -89.11156763 210.0373626 -97 206 C-99.57568555 205.42227614 -102.15426338 204.99513724 -104.7578125 204.5625 C-107 204 -107 204 -109 202 C-108.14994385 201.99589111 -107.2998877 201.99178223 -106.42407227 201.98754883 C-80.13072874 201.76513102 -57.60646035 199.89268605 -38 180 C-37.43796875 179.44828125 -36.8759375 178.8965625 -36.296875 178.328125 C-30.21768099 171.86498189 -24.70034484 163.18104727 -24.1875 154.1875 C-24.43711693 150.14718873 -25.33423768 148.19045898 -28 145.1875 C-32.02766795 140.60757497 -31.60004156 136.04253807 -31.50390625 130.171875 C-30.97917714 126.86892899 -30.2453545 125.41899525 -28 123 C-27.03578125 123.62648438 -26.0715625 124.25296875 -25.078125 124.8984375 C-23.8021532 125.72406631 -22.52610765 126.54958116 -21.25 127.375 C-20.61578125 127.7875 -19.9815625 128.2 -19.328125 128.625 C-17.56159161 129.76588615 -15.78307044 130.88520956 -14 132 C-13.35417969 132.41894531 -12.70835937 132.83789062 -12.04296875 133.26953125 C-8.77836019 134.43680047 -5.48544236 134.32810138 -2.0625 134.3125 C-1.35931641 134.32861328 -0.65613281 134.34472656 0.06835938 134.36132812 C4.5601644 134.36553788 7.49328052 133.86091479 11 131 C17.81342876 120.71405553 11.63798304 100.09074902 9.8125 88.8125 C9.49046877 86.77200827 9.16918643 84.73139821 8.84863281 82.69067383 C8.06046998 77.69895107 7.25600366 72.71005105 6.44317627 67.72229004 C6.03453428 65.21213302 5.62959012 62.70141495 5.22607422 60.19042969 C4.58112834 56.18708214 3.91934295 52.18684401 3.25 48.1875 C2.97119995 46.49427612 2.97119995 46.49427612 2.68676758 44.7668457 C1.88874182 40.1474288 1.01316676 35.80536415 -0.62109375 31.40625 C-2.40793199 26.3779986 -2.40731611 21.60323894 -2.3125 16.3125 C-2.31572266 15.40177734 -2.31894531 14.49105469 -2.32226562 13.55273438 C-2.28307293 8.64652163 -1.91418421 4.59861784 0 0 Z " fill="#A32117" transform="translate(897,47)"/>
<path d="M0 0 C0.66 0 1.32 0 2 0 C4.07892357 4.47832687 4.76501321 8.88583261 5.48046875 13.72265625 C5.68104889 15.03118561 5.68104889 15.03118561 5.88568115 16.3661499 C6.32710469 19.26386035 6.75835724 22.16294657 7.1875 25.0625 C7.33696075 26.06630707 7.48642151 27.07011414 7.64041138 28.1043396 C8.44026828 33.48431503 9.23079942 38.86557442 10.01367188 44.24804688 C10.66784902 48.74327605 11.33366877 53.23653203 12.00976562 57.72851562 C18.6674185 102.08382765 18.6674185 102.08382765 18.625 122.5 C18.62655594 123.52633041 18.62655594 123.52633041 18.62814331 124.57339478 C18.58625719 135.99218144 18.58625719 135.99218144 15 140 C14.690625 139.030625 14.38125 138.06125 14.0625 137.0625 C13.30476658 134.15934208 13.30476658 134.15934208 12 133 C11.96125485 131.1789779 11.92720635 129.35776199 11.91381836 127.53637695 C11.77153266 118.69766087 10.36017793 110.79748844 7.9375 102.3125 C0.60664952 75.9614848 -4.77342309 47.84950209 -4.75 20.4375 C-4.75314209 19.15593018 -4.75628418 17.87436035 -4.75952148 16.55395508 C-4.59526683 9.886314 -3.98134915 5.42259754 0 0 Z " fill="#A32117" transform="translate(937,57)"/>
<path d="M0 0 C0.01458252 0.65782471 0.02916504 1.31564941 0.04418945 1.9934082 C0.49877971 20.46455065 2.23710873 37.5126354 6.9375 55.375 C13.96315503 82.21688477 15.03089727 107.62922422 12 135 C11.67 135 11.34 135 11 135 C6.47379017 122.46588046 4.4605018 109.21231329 2.09326172 96.1484375 C1.50505419 92.9028875 0.91125101 89.65840189 0.31640625 86.4140625 C-0.45376838 82.20744259 -1.21091612 77.99877691 -1.95849609 73.78808594 C-2.58058879 70.28794899 -3.23265979 66.79812835 -3.93603516 63.31347656 C-6.21764691 51.63493179 -6.4616089 40.12355633 -6.39111328 28.24414062 C-6.37474577 24.94881542 -6.39120103 21.65466766 -6.41015625 18.359375 C-6.40817844 16.26041396 -6.40434438 14.16145366 -6.3984375 12.0625 C-6.40451019 11.07934814 -6.41058289 10.09619629 -6.4168396 9.08325195 C-6.40738312 8.18050537 -6.39792664 7.27775879 -6.38818359 6.34765625 C-6.38579681 5.55367432 -6.38341003 4.75969238 -6.38095093 3.94165039 C-6.25523712 3.30090576 -6.12952332 2.66016113 -6 2 C-3 0 -3 0 0 0 Z " fill="#A32117" transform="translate(601,57)"/>
<path d="M0 0 C6.71451133 10.071767 7.95931576 23.18454502 8.2902832 34.98022461 C8.67366697 48.36330126 10.52836406 60.50090394 13.96484375 73.4296875 C15.92753965 81.09359322 17.11900479 88.73796297 18.01074219 96.59204102 C18.25134648 98.69929268 18.51129779 100.80353307 18.7734375 102.90820312 C20.83443664 119.98956693 20.83443664 119.98956693 20 128 C19.01 128.99 19.01 128.99 18 130 C17.59952556 132.32275177 17.2602896 134.65739357 17 137 C14.95627652 133.40523638 14.00221626 129.60254578 13 125.625 C11.65068796 120.30662841 11.65068796 120.30662841 9.8984375 115.109375 C8.68984488 110.92659357 8.70549855 106.95656865 8.625 102.625 C8.30728017 93.25569982 6.63385658 84.97597675 4 76 C-1.23602782 58.09274957 -3.3812535 39.86620715 -3.4375 21.25 C-3.4523645 19.27918457 -3.4523645 19.27918457 -3.4675293 17.26855469 C-3.40893463 10.78857458 -3.21511035 5.6968003 0 0 Z " fill="#A32117" transform="translate(1144,57)"/>
<path d="M0 0 C1.01345179 3.20926401 1.44817949 4.76868119 1 8 C-0.85601674 11.46298331 -3.28811215 14.17638643 -6 17 C-6.62648438 17.65484375 -7.25296875 18.3096875 -7.8984375 18.984375 C-14.35627468 25.15226847 -21.15803106 28.21546739 -30.125 28.25 C-31.75091314 28.1869452 -33.37666221 28.11110297 -35 28 C-31.94715045 24.2834875 -28.68561295 22.82709096 -24.31640625 21.125 C-21.37517959 19.80189224 -21.37517959 19.80189224 -17 16 C-23.6 13.69 -30.2 11.38 -37 9 C-37 3 -37 3 -35.125 0.25 C-26.59331125 -5.8928159 -8.8094804 -5.87298693 0 0 Z " fill="#A32117" transform="translate(1504,91)"/>
<path d="M0 0 C-0.51953125 2.74609375 -0.51953125 2.74609375 -2 6 C-4.60405599 7.67470427 -6.87159865 8.86069144 -9.6875 10.0625 C-10.5120166 10.43189697 -11.3365332 10.80129395 -12.18603516 11.18188477 C-15.11353968 12.47991927 -18.05602615 13.73978531 -21 15 C-22.75997096 15.76904211 -24.51993503 16.5381001 -26.27967834 17.30766296 C-42.30371236 24.29288992 -58.47563348 30.4630245 -75.0625 35.9765625 C-79.48759443 37.45296994 -83.75709906 39.06355974 -88 41 C-86.36450469 36.09351408 -84.10020058 33.25356265 -79.63867188 30.59057617 C-78.31706055 29.9482605 -78.31706055 29.9482605 -76.96875 29.29296875 C-75.94773193 28.79595459 -74.92671387 28.29894043 -73.87475586 27.78686523 C-72.76108643 27.25907471 -71.64741699 26.73128418 -70.5 26.1875 C-69.3354126 25.63070557 -68.1708252 25.07391113 -66.97094727 24.50024414 C-51.83793673 17.33616266 -36.31697736 11.0317834 -20.80627441 4.73931885 C-19.16682057 4.06828065 -17.53461447 3.37960262 -15.90332031 2.68896484 C-15.0315918 2.32367676 -14.15986328 1.95838867 -13.26171875 1.58203125 C-12.54588623 1.27628174 -11.83005371 0.97053223 -11.0925293 0.65551758 C-7.36355374 -0.51264242 -3.87112909 -0.24975026 0 0 Z " fill="#A32117" transform="translate(532,47)"/>
<path d="M0 0 C0.33 0 0.66 0 1 0 C1.66 3.3 2.32 6.6 3 10 C5.165625 9.2884375 5.165625 9.2884375 7.375 8.5625 C8.18710937 8.29566406 8.99921875 8.02882813 9.8359375 7.75390625 C12.01031799 7.04820271 12.01031799 7.04820271 14 6 C14.72693904 4.02111039 15.39816251 2.02045442 16 0 C16.33 0 16.66 0 17 0 C17.10871967 2.54283234 17.18762401 5.08095088 17.25 7.625 C17.30027344 8.69427734 17.30027344 8.69427734 17.3515625 9.78515625 C17.44750424 15.013981 16.39155265 17.81708506 13 22 C10.13246273 24.86753727 7.21237419 24.25020918 3.375 24.3125 C-2.59000648 24.5240485 -6.4752267 25.14876537 -11.33203125 28.84765625 C-14.09364968 30.75556594 -16.7157178 30.93684073 -20 31 C-22.64128736 30.21475241 -23.61226142 29.6117031 -25.08203125 27.29296875 C-26.22805097 24.43035779 -26.33650727 22.07941872 -26.375 19 C-26.40335937 17.96875 -26.43171875 16.9375 -26.4609375 15.875 C-25.89305513 12.332954 -24.80179889 11.16644673 -22 9 C-21.34 9 -20.68 9 -20 9 C-19.8046875 11.01822917 -19.609375 13.03645833 -19.4140625 15.0546875 C-19.13625251 17.22668245 -19.13625251 17.22668245 -17 19 C-13.08010997 18.92603981 -10.65241866 18.43494577 -7.375 16.25 C-3.41996921 11.84822154 -1.88909753 5.49044091 0 0 Z " fill="#A32117" transform="translate(517,76)"/>
<path d="M0 0 C2.11483973 3.43661455 2.31094243 6.00216871 2 10 C-2.26678462 19.00003444 -9.49939387 24.52404365 -18.6875 27.875 C-22.19368606 28.92685582 -25.32150268 29.28296133 -29 29 C-25.54354711 24.20556534 -22.29554932 21.77143672 -16.98828125 19.17578125 C-14.69630077 18.01444864 -14.69630077 18.01444864 -13 15 C-20.26 13.68 -27.52 12.36 -35 11 C-36.25541557 7.23375329 -35.37061958 5.62811066 -34 2 C-29.83373537 1.6615135 -25.66693347 1.33014248 -21.5 1 C-19.74042969 0.85691406 -19.74042969 0.85691406 -17.9453125 0.7109375 C-11.94254224 0.2388095 -6.02127983 -0.11923326 0 0 Z " fill="#A32117" transform="translate(779,66)"/>
<path d="M0 0 C0.33 0 0.66 0 1 0 C2.20101747 14.8125488 2.20101747 14.8125488 -1.4375 19.25 C-5.80947476 22.78536231 -11.34208739 23.3203439 -16.78100586 23.94042969 C-21.87792278 24.55097686 -24.73133992 25.98718334 -29 29 C-31.4140625 29.53125 -31.4140625 29.53125 -33.625 29.5 C-34.35976562 29.5103125 -35.09453125 29.520625 -35.8515625 29.53125 C-38.95293433 28.76436533 -40.11324081 27.559101 -42 25 C-42.49609375 21.87109375 -42.49609375 21.87109375 -42.4375 18.4375 C-42.43556641 16.73400391 -42.43556641 16.73400391 -42.43359375 14.99609375 C-42 12 -42 12 -40.47265625 10.09765625 C-39.98667969 9.73542969 -39.50070312 9.37320313 -39 9 C-38.63648438 9.5775 -38.27296875 10.155 -37.8984375 10.75 C-34.82793208 15.41858371 -34.82793208 15.41858371 -30.0625 18 C-23.0543083 15.71161087 -19.24629535 8.23288707 -16 2 C-15.67 2 -15.34 2 -15 2 C-14.7525 2.94875 -14.505 3.8975 -14.25 4.875 C-13.29631425 8.0094068 -13.29631425 8.0094068 -11.1875 9.4375 C-8.48685659 10.13195116 -6.66170427 9.7393623 -4 9 C-3.71125 8.071875 -3.4225 7.14375 -3.125 6.1875 C-2 3 -2 3 0 0 Z " fill="#A32117" transform="translate(1084,76)"/>
<path d="M0 0 C-1.75745 5.27234999 -4.14171212 7.96694807 -9.01049805 10.67358398 C-19.89625233 15.66789079 -31.00585021 19.86942002 -42.26147461 23.95043945 C-54.65300734 28.42570443 -54.65300734 28.42570443 -66.09790039 34.89477539 C-68.76683403 36.4455728 -70.99417429 36.47460406 -74 36 C-73.45732769 33.08313635 -72.86163066 30.78638967 -70.61328125 28.734375 C-58.41382614 20.79546712 -43.85262196 15.76359173 -30.4375 10.25 C-28.03149297 9.25953316 -25.62593575 8.26802128 -23.22145081 7.27386475 C-21.74315778 6.66277741 -20.26399716 6.05378283 -18.78379822 5.44732666 C-15.68857943 4.16897817 -12.72078115 2.85442991 -9.74633789 1.30371094 C-6.34633928 -0.31029854 -3.71707075 -0.22302425 0 0 Z " fill="#A32217" transform="translate(743,45)"/>
<path d="M0 0 C0.33 0 0.66 0 1 0 C1.75704582 14.97268406 1.75704582 14.97268406 -1.6875 20.58203125 C-5.2580309 24.43947981 -10.55756054 24.04381297 -15.4375 24.375 C-19.19480933 24.64593523 -21.75064168 25.1609248 -25 27.0625 C-29.78782707 29.8254752 -34.62541104 29.35567133 -40 29 C-42.53497942 16.27983539 -42.53497942 16.27983539 -42 12 C-40.5 10.125 -40.5 10.125 -39 9 C-38.896875 10.258125 -38.79375 11.51625 -38.6875 12.8125 C-38.35767678 15.36524139 -38.12623746 16.79802006 -36.75 19 C-34.31895454 20.38916883 -32.77349796 20.29453076 -30 20 C-24.07138214 15.9172888 -20.94148435 10.79519523 -19 4 C-18.34 4 -17.68 4 -17 4 C-15.4921875 5.75 -15.4921875 5.75 -13.875 8 C-13.33617187 8.7425 -12.79734375 9.485 -12.2421875 10.25 C-11.83226562 10.8275 -11.42234375 11.405 -11 12 C-6.41881326 8.37108242 -3.07546548 4.96805961 0 0 Z " fill="#A32117" transform="translate(875,76)"/>
<path d="M0 0 C0.495 0.99 0.495 0.99 1 2 C-3.04192529 9.04925799 -7.89991716 11.48133769 -15.1875 14.75 C-16.27869141 15.25515137 -17.36988281 15.76030273 -18.49414062 16.28076172 C-21.98418442 17.88194125 -25.48849517 19.44649218 -29 21 C-30.17771973 21.52303711 -31.35543945 22.04607422 -32.56884766 22.58496094 C-36.03872024 24.11554807 -39.51630866 25.62615302 -43 27.125 C-44.59944458 27.81674316 -44.59944458 27.81674316 -46.23120117 28.52246094 C-51.47303654 30.73033645 -56.50649132 32.5741376 -62.10522461 33.62402344 C-64.82406264 34.16351713 -67.39533817 35.06499319 -70 36 C-68.31974809 30.95924426 -66.03170332 28.13883361 -61.37231445 25.52709961 C-60.3793335 25.07343018 -59.38635254 24.61976074 -58.36328125 24.15234375 C-56.67875854 23.37564331 -56.67875854 23.37564331 -54.96020508 22.58325195 C-53.74452189 22.03418392 -52.52861488 21.48561123 -51.3125 20.9375 C-50.06057048 20.36661293 -48.80886418 19.79523613 -47.55737305 19.22338867 C-44.34157427 17.75758594 -41.12010416 16.30469676 -37.89697266 14.85510254 C-36.05704383 14.02571377 -34.21988014 13.19019925 -32.3828125 12.35449219 C-29.03064958 10.83001135 -25.67295076 9.31861074 -22.3125 7.8125 C-21.30550049 7.35544678 -20.29850098 6.89839355 -19.26098633 6.42749023 C-13.52548689 3.88809774 -8.15553488 2.19673908 -2 1 C-1.34 0.67 -0.68 0.34 0 0 Z " fill="#A32117" transform="translate(1084,42)"/>
<path d="M0 0 C-3.00903821 7.16139718 -11.68787596 10.0049264 -18.375 13.125 C-19.16938477 13.49753906 -19.96376953 13.87007812 -20.78222656 14.25390625 C-28.05124141 17.62456308 -35.38854541 20.83710939 -42.75 24 C-43.85649902 24.48098145 -44.96299805 24.96196289 -46.10302734 25.45751953 C-51.5017942 27.74793048 -56.18536798 29.37118132 -62 30 C-63.010625 30.680625 -64.02125 31.36125 -65.0625 32.0625 C-68.39008134 34.25728769 -70.09977695 34.37144981 -74 34 C-73.18239741 32.92534811 -72.34463044 31.8660417 -71.5 30.8125 C-71.0359375 30.22082031 -70.571875 29.62914062 -70.09375 29.01953125 C-63.18262293 22.35338816 -53.92653014 19.26059263 -45.1875 15.6875 C-43.80088412 15.11434175 -42.41457395 14.54044338 -41.02856445 13.96582031 C-38.28856978 12.8306461 -35.54725741 11.69876191 -32.8046875 10.56982422 C-27.75469183 8.48917928 -22.71994128 6.37269325 -17.6875 4.25 C-16.91881592 3.92733154 -16.15013184 3.60466309 -15.3581543 3.2722168 C-9.47793144 0.79946907 -6.36753983 -0.10270226 0 0 Z " fill="#A32217" transform="translate(743,239)"/>
<path d="M0 0 C0.98484375 0.02707031 1.9696875 0.05414063 2.984375 0.08203125 C3.73203125 0.11683594 4.4796875 0.15164062 5.25 0.1875 C3.52802884 5.00901926 -0.45302553 7.03521991 -4.81069946 9.22125244 C-7.19066751 10.32660911 -9.58453285 11.3926728 -11.98828125 12.4453125 C-12.86848434 12.83443817 -13.74868744 13.22356384 -14.65556335 13.6244812 C-16.51088179 14.44249205 -18.36750299 15.25755381 -20.2253418 16.06982422 C-23.04742088 17.30589534 -25.86267365 18.55663577 -28.67773438 19.80859375 C-30.4891874 20.60506776 -32.30102428 21.40066944 -34.11328125 22.1953125 C-34.94483231 22.56616974 -35.77638336 22.93702698 -36.63313293 23.31912231 C-41.33645284 25.35896755 -45.84035814 26.82225 -50.88391113 27.76789856 C-53.27706973 28.30601484 -54.97446347 29.29830632 -56.9375 30.75 C-60.1837154 32.96185017 -62.76422001 33.8885665 -66.75 34.1875 C-66.32507874 32.89164084 -65.88454118 31.6008956 -65.4375 30.3125 C-65.19386719 29.59320313 -64.95023438 28.87390625 -64.69921875 28.1328125 C-63.75 26.1875 -63.75 26.1875 -60.75 24.1875 C-58.77076721 23.68981934 -58.77076721 23.68981934 -56.56469727 23.30273438 C-51.84255239 22.3200543 -47.95964334 20.58725761 -43.71484375 18.34375 C-42.99188614 17.97399048 -42.26892853 17.60423096 -41.52406311 17.2232666 C-39.24008089 16.05433246 -36.96322659 14.87241643 -34.6875 13.6875 C-32.40786478 12.50331787 -30.12677929 11.32250541 -27.84022522 10.1517334 C-26.42582162 9.42737252 -25.01521843 8.69552066 -23.60935974 7.95471191 C-19.04964245 5.61728153 -14.73267056 4.36557457 -9.75 3.1875 C-9.04359375 2.65511719 -8.3371875 2.12273438 -7.609375 1.57421875 C-5.02737885 -0.35142964 -3.17260429 -0.1133073 0 0 Z " fill="#A32117" transform="translate(870.75,46.8125)"/>
<path d="M0 0 C2.75 0.5625 2.75 0.5625 4.75 3.5625 C4.66537157 8.72483401 4.15964267 12.30022956 0.43334961 16.18945312 C-7.2516021 22.45778792 -14.74634659 23.23887353 -24.375 22.875 C-25.52226563 22.85244141 -26.66953125 22.82988281 -27.8515625 22.80664062 C-30.65245114 22.74828878 -33.45049749 22.66648152 -36.25 22.5625 C-35.31409496 21.4569811 -34.37620142 20.35314547 -33.4375 19.25 C-32.65439453 18.32767578 -32.65439453 18.32767578 -31.85546875 17.38671875 C-27.66561683 12.62598676 -27.66561683 12.62598676 -25.05078125 12.2265625 C-24.22964844 12.21367188 -23.40851562 12.20078125 -22.5625 12.1875 C-15.40318712 11.65602262 -10.88185599 8.45050059 -6.125 3.25 C-3.25 0.5625 -3.25 0.5625 0 0 Z M-8.25 8.5625 C-8.91 9.2225 -9.57 9.8825 -10.25 10.5625 C-7.39921909 11.32966851 -7.39921909 11.32966851 -4.25 11.5625 C-2.20548981 10.51875978 -2.20548981 10.51875978 -1.25 8.5625 C-1.47757731 6.39950789 -1.47757731 6.39950789 -2.25 4.5625 C-4.46218208 4.5625 -6.6444579 7.23107485 -8.25 8.5625 Z " fill="#A32117" transform="translate(954.25,25.4375)"/>
<path d="M0 0 C2.75 0.5625 2.75 0.5625 4.75 3.5625 C4.66537157 8.72483401 4.15964267 12.30022956 0.43334961 16.18945312 C-7.2516021 22.45778792 -14.74634659 23.23887353 -24.375 22.875 C-25.52226563 22.85244141 -26.66953125 22.82988281 -27.8515625 22.80664062 C-30.65245114 22.74828878 -33.45049749 22.66648152 -36.25 22.5625 C-35.31409496 21.4569811 -34.37620142 20.35314547 -33.4375 19.25 C-32.65439453 18.32767578 -32.65439453 18.32767578 -31.85546875 17.38671875 C-27.66561683 12.62598676 -27.66561683 12.62598676 -25.05078125 12.2265625 C-24.22964844 12.21367188 -23.40851562 12.20078125 -22.5625 12.1875 C-15.40318712 11.65602262 -10.88185599 8.45050059 -6.125 3.25 C-3.25 0.5625 -3.25 0.5625 0 0 Z M-8.25 8.5625 C-8.91 9.2225 -9.57 9.8825 -10.25 10.5625 C-6.5483569 11.50943195 -4.85887535 11.86693767 -1.375 10.125 C-0.67375 9.609375 0.0275 9.09375 0.75 8.5625 C0.09 7.2425 -0.57 5.9225 -1.25 4.5625 C-4.39647737 4.5625 -5.9197187 6.5817609 -8.25 8.5625 Z " fill="#A32117" transform="translate(662.25,25.4375)"/>
<path d="M0 0 C-0.88637378 1.11177467 -1.7846465 2.21406614 -2.6875 3.3125 C-3.18636719 3.92738281 -3.68523437 4.54226562 -4.19921875 5.17578125 C-7.55835006 8.57863227 -11.61574169 10.36346764 -16 12.125 C-22.99868675 14.98053427 -29.93758977 17.96878877 -36.87695312 20.96533203 C-37.75416016 21.34286621 -38.63136719 21.72040039 -39.53515625 22.109375 C-40.322854 22.44936523 -41.11055176 22.78935547 -41.92211914 23.13964844 C-45.36011683 24.56315964 -47.99297011 25.11604391 -51.6875 25.0625 C-52.89986328 25.04896484 -52.89986328 25.04896484 -54.13671875 25.03515625 C-54.75160156 25.02355469 -55.36648437 25.01195312 -56 25 C-52.57907702 20.46989997 -49.85004446 17.99942007 -44.625 15.52734375 C-44.01922119 15.23694717 -43.41344238 14.9465506 -42.78930664 14.64735413 C-41.51171748 14.03822255 -40.2307916 13.43604465 -38.94677734 12.84057617 C-37.026096 11.94960548 -35.11609747 11.03859931 -33.20703125 10.12304688 C-10.12378558 -0.85794793 -10.12378558 -0.85794793 0 0 Z " fill="#A32117" transform="translate(155,215)"/>
<path d="M0 0 C-1.90824255 6.17588505 -1.90824255 6.17588505 -4.62442017 8.22619629 C-6.70056589 9.29317443 -8.79283398 10.20330724 -10.95703125 11.078125 C-11.73761398 11.41624207 -12.51819672 11.75435913 -13.32243347 12.10272217 C-15.81010606 13.17457381 -18.31022996 14.21274966 -20.8125 15.25 C-22.48337746 15.96130113 -24.15331195 16.67482168 -25.82226562 17.390625 C-28.1811147 18.40183546 -30.54077212 19.40971772 -32.90840149 20.40020752 C-36.12688649 21.7476914 -39.25802539 23.13017884 -42.3762207 24.70336914 C-46.16332887 26.57489901 -48.83688162 26.21533371 -53 26 C-50.59636641 19.5101893 -44.14533411 16.32450759 -38.24609375 13.51953125 C-37.6227565 13.22060471 -36.99941925 12.92167816 -36.35719299 12.61369324 C-34.3877122 11.67184138 -32.4127371 10.74220824 -30.4375 9.8125 C-29.10966436 9.17849131 -27.78218705 8.54373158 -26.45507812 7.90820312 C-12.32846785 1.17094435 -12.32846785 1.17094435 -6.3125 -0.1875 C-5.16201172 -0.45626953 -5.16201172 -0.45626953 -3.98828125 -0.73046875 C-2 -1 -2 -1 0 0 Z " fill="#A32117" transform="translate(492,188)"/>
<path d="M0 0 C1.41848295 3.81217294 2.51623604 6.93156838 2 11 C0.171875 13.38671875 0.171875 13.38671875 -2.25 15.6875 C-3.03890625 16.45449219 -3.8278125 17.22148438 -4.640625 18.01171875 C-8.73541524 21.46246085 -11.49622934 22.25003848 -16.859375 22.1953125 C-17.97441406 22.18886719 -19.08945313 22.18242188 -20.23828125 22.17578125 C-21.39714844 22.15902344 -22.55601563 22.14226563 -23.75 22.125 C-24.92433594 22.11597656 -26.09867188 22.10695313 -27.30859375 22.09765625 C-30.20593536 22.07410063 -33.10286441 22.04120652 -36 22 C-35.3677748 17.85927229 -34.46907433 15.6528822 -31.0703125 12.9765625 C-28.34541534 11.69123365 -26.06461884 11.70776518 -23.0625 11.625 C-18.70658719 11.49085191 -18.70658719 11.49085191 -14.94921875 9.53515625 C-13.82437963 8.31205532 -12.72704005 7.06303185 -11.66015625 5.7890625 C-8.77096125 2.67553001 -4.3385929 0 0 0 Z M-4 3 C-7.465 5.97 -7.465 5.97 -11 9 C-8.24443417 11.26646351 -8.24443417 11.26646351 -5.4375 10.875 C-2.84824288 10.22648849 -2.84824288 10.22648849 -1.6875 7.9375 C-1.460625 7.298125 -1.23375 6.65875 -1 6 C-1.99 5.01 -2.98 4.02 -4 3 Z " fill="#A32117" transform="translate(1166,26)"/>
<path d="M0 0 C-1.171875 6.0546875 -1.171875 6.0546875 -2 8 C-4.64617971 9.57902712 -6.99124203 10.27066115 -10.01171875 10.75 C-17.21966249 12.25908493 -23.44287488 16.16477707 -29.85351562 19.65625 C-36.84855893 23.32224572 -43.13985139 25.1892611 -51 26 C-47.44959978 17.83342805 -41.68200397 15.21900583 -33.8125 11.75 C-32.72646484 11.24726563 -31.64042969 10.74453125 -30.52148438 10.2265625 C-8.23453861 0 -8.23453861 0 0 0 Z " fill="#A32217" transform="translate(1007,218)"/>
<path d="M0 0 C9.1762381 4.36963719 12.2666961 11.05562608 16 20 C17.62613835 24.87841506 17.22618441 29.89155612 17.25 35 C17.270625 36.10601562 17.29125 37.21203125 17.3125 38.3515625 C17.31765625 39.41117188 17.3228125 40.47078125 17.328125 41.5625 C17.34214355 43.01849609 17.34214355 43.01849609 17.35644531 44.50390625 C16.94622078 47.37660185 16.24533001 48.23930558 14 50 C13.87625 48.88625 13.7525 47.7725 13.625 46.625 C13.3534187 42.96896323 13.3534187 42.96896323 11 41 C10.68743094 39.0088193 10.44868259 37.00574805 10.25 35 C9.21757576 27.54176732 6.43087596 21.72609087 1.3203125 16.17578125 C-0.60014146 13.0110095 -0.28915005 10.40940185 -0.1875 6.75 C-0.16042969 5.48671875 -0.13335938 4.2234375 -0.10546875 2.921875 C-0.07066406 1.95765625 -0.03585937 0.9934375 0 0 Z " fill="#A32117" transform="translate(698,99)"/>
<path d="M0 0 C0.495 0.99 0.495 0.99 1 2 C-0.564701 5.44234221 -1.67638062 7.44463522 -5.234375 8.9375 C-7.21039743 9.51802636 -9.18850968 10.09145839 -11.16796875 10.66015625 C-17.04947294 12.53567249 -22.45375526 15.66029986 -27.88085938 18.55957031 C-32.74248607 21.0974848 -36.56649325 22.41658336 -42 23 C-42.66 23.66 -43.32 24.32 -44 25 C-46.625 25.125 -46.625 25.125 -49 25 C-45.53260158 16.94508319 -36.01067502 13.10433547 -28.5625 9.375 C-27.60907715 8.89571045 -26.6556543 8.4164209 -25.67333984 7.92260742 C-17.33510608 3.88145009 -9.11220573 1.51064419 0 0 Z " fill="#A32117" transform="translate(1255,215)"/>
<path d="M0 0 C0 3 0 3 -1.51171875 4.796875 C-11.53949597 13.79847035 -21.7748804 18.3919612 -34.72802734 21.40307617 C-35.51258301 21.58588135 -36.29713867 21.76868652 -37.10546875 21.95703125 C-37.80824951 22.11147705 -38.51103027 22.26592285 -39.23510742 22.42504883 C-41.2294668 22.92726394 -41.2294668 22.92726394 -43 25 C-46.125 25.125 -46.125 25.125 -49 25 C-36.31671651 12.08541043 -19.42428157 4.90205742 -2 1 C-1.34 0.67 -0.68 0.34 0 0 Z " fill="#A32217" transform="translate(1544,227)"/>
<path d="M0 0 C0.58690924 2.05568724 1.14366277 4.12000065 1.6875 6.1875 C2.00074219 7.33605469 2.31398438 8.48460937 2.63671875 9.66796875 C3.06710231 13.61546528 2.45146186 14.9467153 0 18 C-2.47517501 19.39625257 -4.05154539 20.10364556 -6.89453125 19.79296875 C-9.70737256 18.73358696 -11.18604975 17.10464776 -13.25 14.9375 C-13.95640625 14.20402344 -14.6628125 13.47054687 -15.390625 12.71484375 C-15.92171875 12.14894531 -16.4528125 11.58304688 -17 11 C-14.43780911 0.9841629 -9.57314874 -0.83648873 0 0 Z " fill="#A32117" transform="translate(1529,203)"/>
<path d="M0 0 C4.66762902 1.14838492 8.00267152 4.40064543 11.4609375 7.60546875 C9.65195046 12.34329194 8.22797855 15.31847291 3.4453125 17.54296875 C0.94746855 18.35859127 -0.91016704 18.7554393 -3.5390625 18.60546875 C-6.70364365 16.83838511 -8.66951818 14.69428111 -10.5390625 11.60546875 C-11.29387742 7.55691598 -11.18680163 5.70380901 -9.1015625 2.16796875 C-5.90970436 0.22171379 -3.70803149 -0.12934994 0 0 Z " fill="#A32117" transform="translate(404.5390625,207.39453125)"/>
<path d="M0 0 C1.30044906 3.15038364 1.06933304 3.82666741 -0.25 7.125 C-3.7183981 10.75105255 -6.33124281 11.52832504 -11.2265625 12.23046875 C-14.6573423 11.94537578 -15.78678644 11.0404118 -18.1875 8.625 C-19.16029112 7.44489274 -20.1107841 6.24429529 -21 5 C-18.53248532 -2.88955353 -18.53248532 -2.88955353 -15.26953125 -5.25390625 C-9.13863073 -7.39543837 -4.37018041 -4.34149214 0 0 Z " fill="#A32117" transform="translate(673,145)"/>
<path d="M0 0 C3.4375 -0.375 3.4375 -0.375 7 0 C8.75 1.4375 8.75 1.4375 10 3 C10.99 3.33 11.98 3.66 13 4 C14.46858143 6.64344657 15.01321286 8.47148544 14.9375 11.5 C13.61244655 15.03347588 11.99826021 16.71871506 9 19 C5.4375 19.5625 5.4375 19.5625 2 19 C-0.87601643 16.82632626 -1.89082683 15.68927126 -2.4609375 12.08984375 C-2.43257813 11.04957031 -2.40421875 10.00929687 -2.375 8.9375 C-2.36210937 7.89464844 -2.34921875 6.85179687 -2.3359375 5.77734375 C-2 3 -2 3 0 0 Z " fill="#A32117" transform="translate(372,211)"/>
</svg>
