<?xml version="1.0" encoding="UTF-8"?>
<svg version="1.1" xmlns="http://www.w3.org/2000/svg" width="1482" height="1869">
<path d="M0 0 C2.49233656 -0.01203197 4.98229125 -0.0616187 7.47412109 -0.11157227 C18.26417881 -0.21775387 26.68964562 1.44274659 36.72802734 5.42553711 C38.16074942 5.85834748 39.59695485 6.28042218 41.04052734 6.67553711 C45.53639561 8.39425997 48.70943241 11.76199431 52.14599609 15.03491211 C54.63157744 17.33623704 57.20332008 19.33814186 59.91552734 21.36303711 C64.26866412 24.77220195 67.02233687 28.4323714 70.00927734 33.04663086 C71.76111568 35.47133438 73.54555894 37.1606516 75.85302734 39.05053711 C79.90275549 42.42401507 82.30029248 45.76930399 84.72802734 50.42553711 C85.59621094 52.03235352 85.59621094 52.03235352 86.48193359 53.67163086 C90.30650173 61.07314764 92.37363958 67.80260715 93.53417969 76.03466797 C94.43063372 81.8459149 96.35768163 86.5577767 98.89331055 91.82788086 C102.2811526 99.12340666 104.23173015 106.78997404 106.24267578 114.55834961 C108.79713599 124.28317037 112.76952172 132.66350243 117.45849609 141.53100586 C119.64391595 146.51376312 119.82909176 151.43515153 120.01733398 156.79272461 C120.48506488 169.45743822 123.42130587 179.37487254 128.85913086 190.79467773 C132.21765671 197.97865616 133.9158067 204.46765625 133.69921875 212.44750977 C133.38127458 233.47329628 142.41995221 256.43195421 150.4453125 275.62768555 C152.50619107 280.59326698 153.90341544 285.594667 155.22802734 290.80053711 C158.39676596 302.86458854 164.68781144 311.81403684 172.64038086 321.26416016 C175.35834442 324.52141959 177.43791046 327.30498197 178.72802734 331.42553711 C179.28490234 331.40233398 179.84177734 331.37913086 180.41552734 331.35522461 C187.3460908 331.19132615 192.93569424 332.20082961 199.29052734 334.98803711 C203.18389593 336.53314606 206.80879341 336.6845378 210.97802734 336.86303711 C228.32527528 337.77695773 238.32103659 346.02490605 249.72802734 358.42553711 C254.72802734 364.52419182 254.72802734 364.52419182 254.72802734 367.42553711 C264.44029979 362.20275886 273.27221954 356.28848067 282.06933594 349.65063477 C284.2565526 348.03517212 286.52103298 346.54743765 288.79052734 345.05053711 C295.15774074 340.64982535 300.59986051 335.17392698 306.19775391 329.85864258 C307.99386024 328.17658384 309.84708081 326.57432893 311.72802734 324.98803711 C321.60265802 316.41157986 330.3503406 307.23439066 337.72802734 296.42553711 C339.90125359 293.39434522 342.09775385 290.38010588 344.29052734 287.36303711 C347.75216244 282.58043734 351.19139105 277.78792993 354.54052734 272.92553711 C357.43864023 268.74335935 360.60499461 264.82092196 363.81396484 260.87475586 C366.18125082 257.84559604 368.26392808 254.67583004 370.36083984 251.45678711 C374.06853481 245.94821173 378.64611997 241.22941182 383.54931641 236.76855469 C388.78930172 231.84411594 391.98513714 226.8900347 395.16552734 220.48803711 C404.12051677 203.44141427 415.65426968 196.29495449 433.72802734 190.42553711 C434.68322266 190.13420898 435.63841797 189.84288086 436.62255859 189.54272461 C442.98227256 187.56810013 448.77448313 184.99316291 454.72802734 182.05053711 C461.41984367 178.77218571 468.08272357 176.11184041 475.22802734 173.98803711 C476.01564453 173.75358887 476.80326172 173.51914062 477.61474609 173.27758789 C501.00169503 166.65226504 531.49765317 165.49778811 553.60302734 177.11303711 C555.32016486 178.20346159 557.02738258 179.3095648 558.72802734 180.42553711 C560.10486671 181.22014463 561.48687386 182.00583216 562.87255859 182.78491211 C564.38709526 183.64391035 565.90141756 184.50328664 567.41552734 185.36303711 C568.11726074 185.75773193 568.81899414 186.15242676 569.54199219 186.55908203 C574.82862199 189.63578849 579.25021051 193.27343991 583.72802734 197.42553711 C584.37698975 198.02052002 585.02595215 198.61550293 585.69458008 199.22851562 C596.45312321 209.14949527 607.0770829 218.98545892 616.19287109 230.46459961 C619.12080149 233.88427794 622.29463179 236.93783581 625.54052734 240.05053711 C631.33878603 245.65609263 635.94950426 251.63268082 640.45849609 258.30322266 C644.023381 263.54813145 647.82509509 268.10894111 652.27880859 272.64038086 C658.64950238 279.88488591 663.31945293 287.98108902 667.66552734 296.55053711 C668.18131348 297.55753662 668.69709961 298.56453613 669.22851562 299.60205078 C670.25889154 301.61669754 671.28631863 303.63285564 672.31054688 305.65063477 C673.54158006 308.0605423 674.79632618 310.45482985 676.06787109 312.84350586 C684.46326958 328.78438378 688.93623581 344.96086529 690.90869141 362.81396484 C691.87839612 371.28390495 693.2944372 379.75328894 695.79833984 387.91381836 C696.76353314 391.55965353 697.06132748 394.72253933 697.10302734 398.48803711 C697.13138672 399.65463867 697.15974609 400.82124023 697.18896484 402.02319336 C696.26170178 408.86765206 691.03938761 413.50791242 686.47802734 418.36303711 C685.94306641 418.94504883 685.40810547 419.52706055 684.85693359 420.12670898 C681.36810736 423.86828866 677.69485763 427.26907941 673.81640625 430.60205078 C669.35280272 434.49948528 665.10982324 438.64201912 660.81982422 442.72827148 C654.67743595 448.54941672 649.57570627 452.72958153 641.54052734 455.67553711 C630.02790616 460.0735798 618.96900619 465.38712125 607.86010742 470.7019043 C595.02084351 476.83804377 582.1791273 482.05074727 568.63555908 486.41690063 C551.61592817 491.92288701 535.15153987 498.02803009 519.22802734 506.23803711 C512.92354252 509.47264215 506.56899052 511.62573258 499.72802734 513.42553711 C498.53822266 513.77229492 497.34841797 514.11905273 496.12255859 514.47631836 C490.59290815 515.84690987 484.95812807 515.97768864 479.29052734 516.30053711 C470.02036456 516.90268152 461.43313374 518.05242876 452.50927734 520.62084961 C444.22106174 522.38466409 436.34468128 521.27630585 428.10302734 519.73803711 C426.6310791 519.46902588 426.6310791 519.46902588 425.12939453 519.19458008 C423.05615346 518.81114548 420.98389288 518.42237502 418.91259766 518.02856445 C416.77815322 517.62438799 414.64203359 517.22896599 412.50439453 516.84204102 C387.30120735 512.26971379 387.30120735 512.26971379 378.61474609 504.54663086 C374.4706155 501.50162015 369.90538441 499.65023508 365.22802734 497.55053711 C349.98981674 490.49576503 336.30584559 481.14397371 322.98193359 470.97631836 C318.23093992 467.63656967 318.23093992 467.63656967 312.72802734 466.42553711 C313.22173828 467.59729492 313.71544922 468.76905273 314.22412109 469.97631836 C319.99137186 483.97738276 321.69607133 493.8537508 318.18115234 508.74194336 C316.99392468 514.0574854 316.53104172 519.24135889 316.29052734 524.67553711 C315.48577509 540.77588828 310.86190112 553.12708712 302.47802734 566.80053711 C298.89555577 572.67654869 296.99446248 578.18458 295.55712891 584.87768555 C293.34389821 594.85864204 289.08818293 602.78730986 283.72802734 611.42553711 C282.6429544 613.21615076 281.55935633 615.00766004 280.47802734 616.80053711 C280.00494141 617.57268555 279.53185547 618.34483398 279.04443359 619.14038086 C277.68722133 621.49637247 276.55481602 623.89522198 275.41552734 626.36303711 C271.97841409 633.39100032 266.76018507 639.16335363 261.46240234 644.86303711 C255.64067586 651.37685696 252.44689597 658.02391529 249.03491211 666.0090332 C245.96627214 673.12613625 242.35833175 679.18429181 237.72802734 685.42553711 C236.39389578 687.23744964 235.06056626 689.04995298 233.72802734 690.86303711 C233.06544922 691.76151367 232.40287109 692.65999023 231.72021484 693.58569336 C229.61735369 696.58330132 227.73172452 699.6580577 225.85302734 702.80053711 C220.47193328 711.67776274 214.34203909 719.78721263 207.10302734 727.23803711 C199.08043424 735.98096868 195.02975655 747.63052469 190.44458008 758.4152832 C188.30599522 763.34676452 185.83382969 768.01184248 183.16552734 772.67553711 C182.78251465 773.35237549 182.39950195 774.02921387 182.00488281 774.7265625 C180.37468973 777.59568832 178.72615223 780.42850328 176.96240234 783.21850586 C163.74547526 805.814111 167.61970927 839.05442032 169.94311523 863.96411133 C170.84294331 873.77104814 171.14297657 883.57567416 171.38598633 893.41601562 C171.5379318 899.18414424 171.89039869 904.71383308 172.72802734 910.42553711 C172.96813496 915.48683842 173.07100955 920.55478292 173.15771484 925.62084961 C173.28960154 932.08387635 173.28960154 932.08387635 175.25927734 938.15209961 C177.09770408 942.24944429 177.03155207 945.38800102 176.85302734 949.80053711 C176.82065132 951.31087842 176.79196454 952.82130363 176.76708984 954.33178711 C176.7482373 955.40106445 176.7482373 955.40106445 176.72900391 956.49194336 C176.72748717 959.49507548 177.10269405 962.40287973 177.51708984 965.37084961 C177.75310424 967.66980466 177.68217023 969.86600384 177.60302734 972.17553711 C177.55048127 977.58778289 178.24569647 982.77420107 179.04052734 988.11303711 C179.17354248 989.00998291 179.30655762 989.90692871 179.44360352 990.83105469 C179.72552723 992.72137877 180.00817945 994.61159434 180.29150391 996.50170898 C182.34176859 1010.23435429 184.12051005 1023.67979256 183.79321289 1037.59326172 C183.6830796 1042.3852313 183.81936337 1047.06725108 184.20996094 1051.84692383 C184.75738179 1059.24147287 184.9293283 1066.60680125 185.00927734 1074.01928711 C185.0274198 1075.38147583 185.04602646 1076.74365844 185.06506348 1078.10583496 C185.12387066 1082.37901698 185.17630131 1086.65226439 185.22802734 1090.92553711 C185.29648693 1096.54018509 185.36857535 1102.15476596 185.44677734 1107.76928711 C185.45599716 1108.4485343 185.46521698 1109.12778149 185.47471619 1109.82761192 C185.60893867 1119.40826104 185.88384596 1128.9720745 186.44177246 1138.53833008 C186.78451859 1144.72650678 186.5409058 1150.67269072 185.88427734 1156.84350586 C185.75576178 1159.78972508 185.87724705 1162.34090912 186.18505859 1165.25366211 C186.90442118 1172.3787484 186.91407729 1179.49440146 186.91333008 1186.64746094 C186.91550078 1188.95974601 186.9336782 1191.27154 186.95263672 1193.58374023 C186.98013338 1201.18328289 186.68855959 1208.57425737 185.70849609 1216.11303711 C184.81962289 1223.05706263 184.5944424 1229.8602839 184.67333984 1236.85913086 C184.68434219 1237.83979019 184.69534454 1238.82044952 184.7066803 1239.83082581 C184.76180753 1243.8646614 184.83198425 1247.89789657 184.91992188 1251.93115234 C185.23432821 1267.4199965 184.13339919 1278.06538773 175.29052734 1291.11303711 C169.80145531 1299.4553692 165.02976284 1308.06136339 160.53295898 1316.97705078 C147.98795425 1341.07950511 119.42223715 1353.44438784 95.04052734 1362.73803711 C82.13582861 1367.66245457 71.24001624 1373.50333758 61.25146484 1383.11694336 C56.45323355 1387.50665651 51.56060883 1391.04145826 45.04052734 1391.92553711 C41.72802734 1391.42553711 41.72802734 1391.42553711 38.54052734 1389.98803711 C32.97786802 1389.16731688 29.99332845 1391.7592449 25.39990234 1394.72631836 C20.39254897 1397.91081941 15.51484996 1398.08742858 9.72802734 1397.42553711 C7.04052734 1395.86303711 7.04052734 1395.86303711 5.72802734 1393.42553711 C5.31570563 1386.416068 9.45945711 1382.45296428 13.72802734 1377.42553711 C51.42757959 1332.79522337 74.85538053 1265.80316925 91.11157227 1210.5135498 C91.71683285 1208.46345429 92.33206254 1206.41656196 92.94873047 1204.36987305 C100.77783375 1178.17814032 104.03168897 1151.57455325 106.72802734 1124.42553711 C106.82211884 1123.48302597 106.91621033 1122.54051483 107.01315308 1121.56944275 C107.49827973 1116.5108841 107.85553243 1111.51584322 107.86083984 1106.42944336 C107.86277344 1104.60123047 107.86277344 1104.60123047 107.86474609 1102.73608398 C107.86087891 1101.49922852 107.85701172 1100.26237305 107.85302734 1098.98803711 C107.85689453 1097.75504883 107.86076172 1096.52206055 107.86474609 1095.25170898 C107.8576412 1088.5269239 107.57903157 1081.91801705 106.95507812 1075.22363281 C106.60365533 1070.8928192 106.58236439 1066.58070121 106.60302734 1062.23803711 C106.59916016 1061.41368164 106.59529297 1060.58932617 106.59130859 1059.73999023 C106.59738321 1055.87957364 106.75878068 1052.16672725 107.26904297 1048.33959961 C107.90129105 1042.83616586 107.57288713 1037.48279402 107.20458984 1031.96850586 C107.13895844 1030.90312088 107.07332703 1029.8377359 107.00570679 1028.74006653 C106.86635916 1026.5035628 106.72328562 1024.26728839 106.57666016 1022.03125 C106.35260221 1018.60653893 106.14094868 1015.18122665 105.93115234 1011.75561523 C105.79385597 1009.57653301 105.6558597 1007.39749474 105.51708984 1005.21850586 C105.45349274 1004.19556931 105.38989563 1003.17263275 105.32437134 1002.11869812 C105.26115692 1001.16703262 105.1979425 1000.21536713 105.1328125 999.23486328 C105.05167709 997.98318611 105.05167709 997.98318611 104.96890259 996.70622253 C104.73863541 994.52597776 104.28440483 992.54175647 103.72802734 990.42553711 C103.56222619 988.58977012 103.43460195 986.7503762 103.33349609 984.90991211 C103.23004883 983.27795898 103.23004883 983.27795898 103.12451172 981.61303711 C102.98807019 979.36876525 102.86008276 977.12395892 102.74169922 974.87866211 C102.33085035 968.65411998 101.43866688 962.93624477 99.80615234 956.90991211 C97.40396254 948.02503397 96.5349139 939.10411423 95.60546875 929.9670105 C93.23206838 907.04644834 89.42763239 884.50260928 85.22802734 861.86303711 C84.937719 860.29545286 84.64747637 858.72785645 84.3572998 857.1602478 C84.14273982 856.00119383 84.14273982 856.00119383 83.92384529 854.81872463 C83.21578536 850.99250821 82.50855789 847.16613911 81.80224609 843.33959961 C81.66530964 842.59841448 81.52837318 841.85722935 81.38728714 841.09358406 C77.97791624 822.6084801 75.11688372 804.06894972 72.72802734 785.42553711 C72.51847412 783.88784668 72.51847412 783.88784668 72.3046875 782.3190918 C68.85781025 756.72022269 68.97884546 729.62840099 74.72802734 704.42553711 C74.90994629 703.57233887 75.09186523 702.71914062 75.27929688 701.84008789 C77.65736818 690.80405191 81.31659744 681.23042435 86.70166016 671.32885742 C88.34016306 668.29037773 89.87649404 665.20275393 91.41552734 662.11303711 C91.73384521 661.48115479 92.05216309 660.84927246 92.38012695 660.19824219 C94.57463323 655.82022049 96.68708686 651.40807727 98.77099609 646.97631836 C104.758292 634.27952009 110.85670497 622.05952458 118.72802734 610.42553711 C119.53626953 609.2209082 119.53626953 609.2209082 120.36083984 607.99194336 C121.29928139 606.59453723 122.24186335 605.19990096 123.18896484 603.80834961 C124.80358951 601.30855 126.29548134 598.74883814 127.78710938 596.17431641 C132.33694637 588.36714262 137.4241142 581.30560529 143.16113281 574.33227539 C144.88385972 572.23590625 146.58921771 570.12601353 148.29443359 568.01538086 C149.52145165 566.50557791 150.74930528 564.99645361 151.97802734 563.48803711 C152.54416748 562.7901709 153.11030762 562.09230469 153.69360352 561.37329102 C156.44020363 558.03221471 159.23935913 554.85618981 162.32958984 551.82788086 C165.49007858 548.73009327 168.19104782 545.45316326 170.85302734 541.92553711 C177.95959166 532.70966139 185.31845533 523.4292033 193.85302734 515.48803711 C199.19040486 510.2843726 203.10111879 503.95651149 207.18359375 497.76147461 C208.82151231 495.28414221 210.48323601 492.82375374 212.14599609 490.36303711 C220.39017502 478.06692947 226.0003014 466.95036692 229.60302734 452.55053711 C229.94527344 451.19327515 229.94527344 451.19327515 230.29443359 449.80859375 C231.39751666 445.08667808 232.21396739 441.18973665 230.72802734 436.42553711 C221.27192727 431.69748707 204.96152094 436.77916576 195.34887695 438.96704102 C178.34545043 441.9416507 160.52430571 438.39445855 146.16552734 429.05053711 C141.73718246 425.70117981 138.14675234 421.78384547 134.72802734 417.42553711 C134.02677734 418.14741211 133.32552734 418.86928711 132.60302734 419.61303711 C130.7532778 421.51719105 128.89767142 423.06562605 126.77880859 424.69897461 C118.19138127 431.82383917 115.2339558 444.90720603 113.72802734 455.42553711 C113.63521484 456.0668457 113.54240234 456.7081543 113.44677734 457.36889648 C112.74164331 463.11573887 112.63783901 468.83173912 112.58740234 474.61303711 C112.23349007 514.36285003 110.34434083 564.52628389 90.02490234 599.75756836 C87.43660454 605.08228944 86.61397694 610.51146419 86.14648438 616.36083984 C85.34641483 626.16690967 82.5520187 634.417475 78.72802734 643.42553711 C76.32242205 649.11001538 74.36789972 654.61563255 72.85302734 660.61303711 C69.81731243 672.46592695 65.16421765 682.97113209 59.05444336 693.51293945 C53.7200242 702.78302968 49.96928717 712.4466211 46.75561523 722.63134766 C45.19519112 727.41132703 43.15963501 731.80748303 40.91552734 736.30053711 C36.92934638 744.33403679 34.34202672 752.62765843 31.7331543 761.19116211 C29.54185744 768.24622606 26.8953706 774.73619521 23.58520508 781.32714844 C20.76570704 787.04717651 18.8930878 792.86642355 17.09570312 798.97412109 C15.14305174 805.46691769 12.63397196 811.62917984 9.97802734 817.86303711 C6.24724527 826.74643026 4.08528826 834.51841269 3.50146484 844.17163086 C2.719705 855.06222413 0.33202412 865.19303053 -2.58447266 875.67553711 C-7.05498797 891.81426913 -10.08662805 907.80029283 -12.27197266 924.42553711 C-12.4342334 925.63467773 -12.59649414 926.84381836 -12.76367188 928.08959961 C-15.37279588 948.03633918 -16.89540458 968.18357246 -14.04785156 988.18920898 C-13.40159991 992.79416914 -13.14296109 997.31328203 -13.02783203 1001.96118164 C-12.78126007 1011.52641258 -11.44907377 1020.30228002 -9.14208984 1029.5871582 C-7.52858686 1036.08436812 -6.50138179 1042.35908887 -5.92431641 1049.03881836 C-4.35403383 1057.19112372 0.04701913 1063.77357113 4.72802734 1070.48803711 C10.97464465 1079.49460786 14.9122603 1087.30650566 17.47802734 1097.98803711 C20.597317 1110.1341319 25.58045614 1119.65240639 32.41552734 1130.11303711 C38.39339159 1139.3800915 40.97792657 1147.74800355 42.13037109 1158.67944336 C42.91998385 1163.62871549 44.70390282 1167.88257192 46.61083984 1172.49194336 C49.28192719 1179.50588252 49.19102265 1185.38840766 46.72802734 1192.42553711 C43.63125315 1196.97392421 43.63125315 1196.97392421 40.72802734 1198.42553711 C33.8121451 1199.33473715 27.65325575 1198.09435586 21.72802734 1194.42553711 C16.36223252 1189.97343311 11.58836916 1184.7918919 7.28662109 1179.32006836 C4.53436002 1176.2064417 1.62236568 1174.11199378 -1.89697266 1171.98803711 C-2.51088867 1171.60462158 -3.12480469 1171.22120605 -3.75732422 1170.82617188 C-5.58975251 1169.6829249 -7.42952589 1168.5525495 -9.27197266 1167.42553711 C-14.68264573 1164.09481109 -19.90665823 1160.81230861 -24.76416016 1156.70288086 C-30.66411101 1151.94279264 -37.04773256 1148.2443392 -43.64697266 1144.55053711 C-44.88526968 1143.84764517 -46.123386 1143.14443477 -47.36132812 1142.44091797 C-54.58494734 1138.35980812 -61.9113116 1134.567853 -69.39697266 1130.98803711 C-76.61937996 1127.51376654 -83.20994177 1123.84994174 -88.27197266 1117.42553711 C-88.43310547 1116.72170898 -88.59423828 1116.01788086 -88.76025391 1115.29272461 C-88.92912109 1114.67655273 -89.09798828 1114.06038086 -89.27197266 1113.42553711 C-90.59469935 1112.73806615 -91.92987168 1112.07437237 -93.27197266 1111.42553711 C-104.12080219 1103.26278274 -111.96054356 1093.33165863 -118.27197266 1081.42553711 C-118.59601074 1080.82161133 -118.92004883 1080.21768555 -119.25390625 1079.59545898 C-133.86088599 1051.82924397 -138.46976994 1020.06244555 -142.97509766 989.40991211 C-143.08873154 988.63738098 -143.20236542 987.86484985 -143.31944275 987.06890869 C-143.83454124 983.53627939 -144.32618624 980.00413553 -144.78173828 976.46313477 C-145.65810658 969.74340953 -146.87080034 963.63630367 -149.27197266 957.30053711 C-153.60756624 945.73179976 -154.63889886 934.0071099 -155.39697266 921.73803711 C-155.4380011 921.07413971 -155.47902954 920.41024231 -155.52130127 919.72622681 C-155.79199514 915.29369775 -156.03583742 910.86005536 -156.27197266 906.42553711 C-156.32160156 905.59892578 -156.37123047 904.77231445 -156.42236328 903.9206543 C-157.27016101 888.72495774 -154.5902579 873.39349731 -152.53436279 858.37054443 C-152.29232668 856.57641447 -152.06305521 854.78057482 -151.83496094 852.98461914 C-149.90527927 837.90035604 -145.89546824 824.35339509 -140.35742188 810.2019043 C-139.10250418 806.99206984 -137.89639934 803.76589089 -136.69726562 800.53491211 C-136.02523775 798.72741954 -135.34253776 796.92390396 -134.65869141 795.12084961 C-133.89641692 793.08954914 -133.14634508 791.05296183 -132.453125 788.99707031 C-129.83783656 781.38050754 -126.35959277 774.43283604 -122.52197266 767.36303711 C-122.19794464 766.76281738 -121.87391663 766.16259766 -121.54006958 765.54418945 C-107.7259309 739.99905313 -92.11773926 715.48874063 -73.62402344 693.06567383 C-72.32068236 691.48462555 -71.02712052 689.89613979 -69.73681641 688.30444336 C-64.0714513 681.33386893 -64.0714513 681.33386893 -61.88769531 678.8527832 C-58.03825235 674.46678904 -54.69189088 669.86223244 -51.39697266 665.05053711 C-46.38855451 657.84661609 -41.15734414 651.19810748 -34.85009766 645.07397461 C-24.8307485 634.78137048 -19.09092585 622.78451343 -14.27197266 609.42553711 C-13.83175781 608.2125293 -13.39154297 606.99952148 -12.93798828 605.74975586 C-7.00438708 589.22125094 -2.51587926 573.21592646 -0.12280273 555.79785156 C1.89230006 541.79842713 6.10515396 528.7704075 10.72802734 515.42553711 C11.12658936 514.24209717 11.52515137 513.05865723 11.93579102 511.83935547 C14.43767021 504.56594738 17.32465837 497.84096682 21.04052734 491.11303711 C24.16649605 485.33363594 27.18150603 479.57038345 29.84082031 473.56054688 C36.96000727 457.55610217 48.41850958 446.45225108 60.80224609 434.34350586 C64.46600285 430.73920864 67.91987474 427.03351876 71.26000977 423.12939453 C73.10107865 420.99255439 75.04246398 418.9780922 77.04052734 416.98803711 C77.69666016 416.32932617 78.35279297 415.67061523 79.02880859 414.99194336 C80.72802734 413.42553711 80.72802734 413.42553711 82.72802734 412.42553711 C81.50728516 412.49772461 80.28654297 412.56991211 79.02880859 412.64428711 C77.36605894 412.73822777 75.70329788 412.83196675 74.04052734 412.92553711 C73.24324219 412.97323242 72.44595703 413.02092773 71.62451172 413.07006836 C68.99297049 413.21568724 66.36158723 413.32302705 63.72802734 413.42553711 C62.30913208 413.505177 62.30913208 413.505177 60.86157227 413.58642578 C51.59370306 413.89071308 42.975642 412.21145527 33.96362305 410.28222656 C31.43304703 409.74177874 28.89864995 409.22377095 26.36279297 408.70874023 C13.88292004 406.12748793 1.55016749 403.09123034 -10.14697266 397.92553711 C-15.13849766 395.73663065 -20.13740486 394.34291297 -25.39697266 392.98803711 C-35.0457537 390.43626046 -41.81350231 386.56985726 -49.39697266 380.05053711 C-53.76750117 376.34146057 -58.05500722 373.92115367 -63.20947266 371.55053711 C-71.32367556 367.78042704 -76.99937419 362.70758226 -83.27197266 356.42553711 C-87.59426643 352.41773859 -92.08486658 348.79159244 -96.83447266 345.30053711 C-108.66044775 336.53171825 -119.54389893 326.49047441 -130.27197266 316.42553711 C-131.23103516 315.55541992 -132.19009766 314.68530273 -133.17822266 313.78881836 C-138.88844392 308.41587665 -142.7637514 303.27162342 -146.35498047 296.40673828 C-148.91060188 291.66422021 -151.88015595 288.93180222 -156.03369141 285.62475586 C-159.80555749 281.9187164 -162.00806293 277.33986463 -164.44775391 272.69506836 C-166.15818445 269.6294787 -168.07381593 267.14642623 -170.27197266 264.42553711 C-173.74594115 258.14128365 -176.01547503 251.39719776 -178.19458008 244.57910156 C-179.89193338 239.35444598 -181.9209925 234.31165894 -184.02197266 229.23803711 C-193.86491358 205.17488586 -200.09869406 181.65948894 -202.02246094 155.7746582 C-202.24022447 153.38060733 -202.24022447 153.38060733 -202.78393555 150.8762207 C-208.32875254 123.03286251 -197.92332132 90.89095947 -183.27197266 67.42553711 C-169.43730868 47.13199485 -147.32571589 37.3158982 -125.23974609 28.61987305 C-122.16948652 27.3842931 -119.13004381 26.09044142 -116.09228516 24.77709961 C-104.91841805 19.95693119 -94.22349773 15.81584212 -82.27197266 13.42553711 C-74.23047652 11.81723788 -66.49523273 9.92376892 -58.70947266 7.36303711 C-51.2405012 4.93196301 -44.09147203 3.31210407 -36.27197266 2.42553711 C-35.61612686 2.34619431 -34.96028107 2.2668515 -34.28456116 2.18510437 C-22.84593385 0.80261867 -11.5234401 0.02618446 0 0 Z M-41.11181641 20.68334961 C-45.40005482 21.69047606 -49.72155068 22.21649204 -54.08447266 22.80053711 C-63.63889426 24.12015967 -71.97453257 26.5868953 -80.80566406 30.56762695 C-89.50287885 34.39043426 -98.40668444 36.64464648 -107.63037109 38.75415039 C-120.58410429 41.74470361 -131.59942261 46.73517696 -142.77197266 54.05053711 C-143.87541016 54.76467773 -144.97884766 55.47881836 -146.11572266 56.21459961 C-153.40226702 61.15181806 -153.40226702 61.15181806 -157.39697266 68.80053711 C-158.45804268 72.08459267 -159.46705522 75.04280362 -161.27197266 77.98803711 C-162.9116137 80.80617016 -164.02202496 83.27433485 -165.14697266 86.30053711 C-166.48213923 89.8469084 -167.94758119 92.37733176 -170.33447266 95.30053711 C-174.95058608 101.85356245 -175.00605419 110.14873219 -175.94091797 117.8894043 C-176.4329108 121.65844676 -177.11535345 125.38168213 -177.83447266 129.11303711 C-178.19605469 131.0350293 -178.19605469 131.0350293 -178.56494141 132.99584961 C-179.15758059 135.87064079 -179.87091496 138.65994957 -180.64697266 141.48803711 C-181.30421124 145.62864019 -180.78122763 146.64868668 -179.109375 150.26367188 C-177.36310742 154.77189327 -176.75508732 159.62219423 -175.89697266 164.36303711 C-174.25802669 173.01202304 -172.27141596 181.22899573 -169.42822266 189.55053711 C-168.52439569 192.34892444 -167.94656352 195.08326395 -167.49072266 197.98803711 C-165.67752431 209.3974362 -161.97640147 216.89774629 -155.21337891 226.23803711 C-152.67435983 229.7517658 -150.71673846 233.29133275 -148.89697266 237.23803711 C-145.50224609 244.42589335 -141.09933631 250.76722387 -136.60766602 257.31079102 C-132.5989645 263.22547842 -129.14882712 269.22350817 -125.95947266 275.61303711 C-120.96020218 285.53971166 -114.60968131 292.57624272 -106.15478516 299.73803711 C-103.63521292 301.99624293 -101.49790978 304.48984406 -99.31103516 307.06616211 C-96.23731155 310.62273118 -93.02609099 314.0492349 -89.82470703 317.49072266 C-86.66187524 320.89749626 -83.57707436 324.35865574 -80.52197266 327.86303711 C-75.15317946 333.81769146 -69.51745142 337.75597209 -62.52197266 341.61303711 C-55.48757927 345.61873334 -50.05396176 350.84094166 -44.27197266 356.42553711 C-34.0244278 366.23932345 -22.74342572 368.82946546 -9.19580078 372.33764648 C-3.27045241 373.91297508 2.38283792 375.59506254 8.00927734 378.04663086 C13.26887569 380.33251806 18.26766137 381.64136583 23.91552734 382.55053711 C24.84405518 382.7095752 25.77258301 382.86861328 26.72924805 383.0324707 C37.03530367 384.74114909 47.40379196 385.96342485 57.78613281 387.10083008 C60.55096733 387.40599439 63.31332641 387.72772407 66.07568359 388.05444336 C78.07814497 389.44353572 89.70222659 390.05615416 101.72802734 388.42553711 C99.32778555 386.82537591 97.3089099 385.73296264 94.69287109 384.61303711 C72.51963444 374.97308183 52.85732431 363.09886542 33.99365234 347.99975586 C30.95602733 345.57954161 27.82885686 343.30462084 24.66552734 341.05053711 C21.7840133 338.99110207 19.12050589 336.98042757 16.66552734 334.42553711 C16.02615234 333.76553711 15.38677734 333.10553711 14.72802734 332.42553711 C14.06802734 332.42553711 13.40802734 332.42553711 12.72802734 332.42553711 C12.32777344 331.5302832 12.32777344 331.5302832 11.91943359 330.61694336 C10.70315802 328.37979387 9.52445475 327.08133644 7.66552734 325.36303711 C3.81305889 321.62971716 0.53131979 317.55062905 -2.82275391 313.37084961 C-4.91158269 310.85892473 -7.07174921 308.46051018 -9.31616211 306.08789062 C-18.90405451 295.93887047 -26.15955607 284.98531887 -32.72216797 272.68359375 C-34.8531856 268.749505 -36.88369502 265.41803048 -40.08447266 262.23803711 C-44.21091246 258.03428696 -45.39157698 252.73432165 -46.93603516 247.20678711 C-47.81631803 244.33734651 -49.01933997 242.18005462 -50.71728516 239.71069336 C-54.03386245 234.65177801 -55.18381446 229.2012918 -56.52197266 223.36303711 C-56.77720703 222.3130957 -57.03244141 221.2631543 -57.29541016 220.18139648 C-64.12086311 191.64022612 -62.18877838 160.18820711 -47.20947266 134.30053711 C-44.00964339 129.2221388 -40.42064446 124.74827906 -36.27197266 120.42553711 C-35.11647877 119.14250527 -33.97016413 117.85112993 -32.83447266 116.55053711 C-32.34076172 115.99624023 -31.84705078 115.44194336 -31.33837891 114.87084961 C-30.07406659 113.4566709 -30.07406659 113.4566709 -30.27197266 111.42553711 C-29.67513672 111.15354492 -29.07830078 110.88155273 -28.46337891 110.60131836 C-26.32445778 109.45369758 -24.94108323 108.29150362 -23.20947266 106.61303711 C-16.58846631 100.8143399 -7.94792295 97.54311715 0.72802734 96.42553711 C1.59169922 96.30694336 2.45537109 96.18834961 3.34521484 96.06616211 C11.49928583 95.46557898 16.44396687 98.46909504 22.72802734 103.42553711 C23.37642578 103.93084961 24.02482422 104.43616211 24.69287109 104.95678711 C40.18251039 118.72535537 48.36975451 145.93408022 55.84838867 164.55737305 C58.51634431 171.07006798 61.61021074 176.72324475 65.72802734 182.42553711 C67.95927913 185.77241479 68.51122518 188.33030603 69.41552734 192.23803711 C71.24461309 199.51579919 74.0883219 205.84964001 77.67138672 212.45922852 C78.83605752 214.62657108 79.96333372 216.81109074 81.08740234 218.99975586 C85.29900196 227.16510205 89.66196653 235.1783643 94.47802734 243.00341797 C96.68809148 246.61471334 98.71625762 250.26916038 100.640625 254.04003906 C103.6535642 259.94286235 106.92989766 265.23741476 110.97802734 270.48803711 C115.64898955 276.55252347 119.33377263 282.91591682 122.91552734 289.67553711 C129.49752515 303.03363372 129.49752515 303.03363372 139.72802734 313.42553711 C137.80822212 307.13113942 135.35388065 301.36598746 132.41552734 295.48803711 C122.64091554 275.30181188 117.3056304 253.32407104 113.12817383 231.3671875 C111.96501601 225.33836585 110.43815131 219.539493 108.65771484 213.65991211 C107.44358345 209.43595919 106.56660791 205.16477515 105.73193359 200.85131836 C104.82397362 197.7529491 103.69844849 195.15018519 102.31396484 192.24584961 C99.68586866 186.6112152 98.16154709 181.03391929 96.79052734 174.98803711 C94.35555281 164.77557471 91.56268993 154.74148706 88.43945312 144.7199707 C87.74036362 142.46532308 87.05825322 140.20617189 86.38037109 137.94506836 C85.95496528 136.54261067 85.52920324 135.14026098 85.10302734 133.73803711 C84.55775391 131.93786133 84.55775391 131.93786133 84.00146484 130.10131836 C83.03516095 127.3120792 81.99690318 124.80396989 80.74755859 122.14819336 C78.45097488 117.09174587 77.26149068 111.95018884 76.04052734 106.55053711 C66.22645328 62.48020167 66.22645328 62.48020167 42.72802734 25.42553711 C40.60255338 24.26341125 40.60255338 24.26341125 38.35302734 23.42553711 C35.49654945 22.29505822 33.41084741 21.19073585 30.91552734 19.34350586 C27.09159881 17.04258808 24.53450336 16.86680745 20.10302734 16.73803711 C12.96532847 16.48871629 12.96532847 16.48871629 10.85644531 15.92724609 C-5.77255127 12.0074723 -25.07878456 15.99193456 -41.11181641 20.68334961 Z M-26.27197266 141.42553711 C-27.04283203 142.15514648 -27.81369141 142.88475586 -28.60791016 143.63647461 C-37.89879282 153.86820615 -36.86426597 170.46239025 -36.27197266 183.42553711 C-36.06647821 185.65515186 -35.79919474 187.85737221 -35.48681641 190.07397461 C-35.08840398 194.43477974 -35.31066429 198.81843593 -35.43212891 203.19116211 C-35.15016262 215.70612713 -31.51457679 225.36600276 -25.97998047 236.39038086 C-24.78220691 238.78011824 -23.61512613 241.18300515 -22.45166016 243.58959961 C-18.05883342 252.55809323 -13.22011898 260.95813422 -7.51000977 269.15209961 C-4.14005805 274.08111811 -1.22585077 279.23862116 1.72802734 284.42553711 C5.93182685 291.75774554 11.80225061 296.6205546 18.41552734 301.73803711 C18.9741748 302.17075928 19.53282227 302.60348145 20.10839844 303.04931641 C22.86981746 305.14744936 25.54752582 307.02487829 28.72802734 308.42553711 C28.72802734 309.08553711 28.72802734 309.74553711 28.72802734 310.42553711 C30.3375497 312.1960117 31.97576843 313.80042624 33.72802734 315.42553711 C34.40994141 316.06620117 35.09185547 316.70686523 35.79443359 317.36694336 C41.0964808 322.2497183 46.61981413 326.68521663 52.34301758 331.05029297 C56.6813494 334.42936037 60.45222074 338.12467937 64.22802734 342.11303711 C69.26671636 347.3653781 74.35115371 350.84365089 80.82958984 354.25756836 C85.68803284 356.86531532 90.1893921 359.99136292 94.72802734 363.11303711 C95.52934082 363.66024414 96.3306543 364.20745117 97.15625 364.77124023 C100.52154893 367.0954551 103.77416008 369.41086519 106.82958984 372.13256836 C110.05494607 374.68416419 113.27592336 376.06849095 117.10302734 377.42553711 C122.7764697 379.55351291 127.74323594 381.96670226 132.72802734 385.42553711 C135.05732382 382.55960321 136.48564416 379.8968624 137.77099609 376.44116211 C138.12226562 375.5065918 138.47353516 374.57202148 138.83544922 373.60913086 C139.191875 372.64104492 139.54830078 371.67295898 139.91552734 370.67553711 C140.28355469 369.69198242 140.65158203 368.70842773 141.03076172 367.69506836 C141.93572096 365.27400858 142.83457082 362.85086026 143.72802734 360.42553711 C142.78157719 359.31992758 141.83492248 358.21449316 140.88818359 357.10913086 C140.3610376 356.49352295 139.8338916 355.87791504 139.29077148 355.24365234 C137.92288388 353.65223554 136.54501907 352.06940567 135.16552734 350.48803711 C132.83128605 347.55527241 130.96604331 344.61315122 129.13427734 341.35522461 C127.75426505 339.2631093 127.75426505 339.2631093 125.34521484 337.64038086 C121.55223644 334.43050212 119.65071619 330.49453645 117.29833984 326.17749023 C115.28893218 322.63590923 113.2878843 319.87117917 110.29443359 317.09350586 C106.02842629 313.01874525 103.64200828 308.29093036 101.04052734 303.05053711 C100.58097656 302.15592773 100.12142578 301.26131836 99.64794922 300.33959961 C97.12751587 295.39221546 94.77806081 290.39902904 92.60546875 285.28930664 C91.68695754 283.19894359 91.68695754 283.19894359 89.79052734 280.67553711 C86.2733254 275.1332795 83.80742441 268.69736291 82.19824219 262.32885742 C79.9848127 253.79210683 75.68010165 246.35574627 71.47802734 238.67553711 C69.99017826 235.93261845 68.50751357 233.18691444 67.02490234 230.44116211 C66.66074722 229.76987274 66.2965921 229.09858337 65.92140198 228.4069519 C63.51161987 223.94604225 61.22271058 219.43806688 58.98974609 214.88647461 C56.54181485 209.9386629 53.89294552 205.35487668 50.79052734 200.80053711 C47.0384533 195.06074034 44.3503042 189.35005663 41.97802734 182.92553711 C37.74084122 171.53399522 31.64134745 161.38427222 25.32128906 151.03930664 C23.9581548 148.80306462 22.61892801 146.5558611 21.29443359 144.29663086 C18.01494461 138.77967376 14.64433672 133.77281771 10.25146484 129.08178711 C8.72802734 127.42553711 8.72802734 127.42553711 6.60302734 124.42553711 C4.91931319 122.20535629 4.91931319 122.20535629 2.45068359 122.12866211 C-8.29116044 123.29993922 -18.73939035 134.28553239 -26.27197266 141.42553711 Z M482.12402344 201.35888672 C473.54751569 204.06480815 464.69164713 204.98841058 455.79223633 206.08081055 C444.09683791 207.22743227 444.09683791 207.22743227 434.3046875 213.16772461 C432.05211536 214.96475955 429.60643758 215.93294524 426.96728516 217.04833984 C415.10261126 222.12089735 409.55158356 230.10399409 404.66552734 241.99194336 C403.93271947 243.89419048 403.20448504 245.7981996 402.47802734 247.70288086 C398.46781196 257.73931664 393.29928462 265.08426912 385.50537109 272.53881836 C378.93449861 278.82725611 374.29698858 284.20416231 370.25146484 292.43334961 C365.13925369 302.47425664 356.05020753 311.39074222 347.16552734 318.23803711 C342.05111649 322.45496721 338.57866807 328.38784674 334.85009766 333.80004883 C327.77015718 344.05641169 319.50951301 351.72968591 309.72802734 359.42553711 C309.09541992 359.9239209 308.4628125 360.42230469 307.81103516 360.93579102 C285.12839499 378.72535329 285.12839499 378.72535329 275.72802734 383.42553711 C276.19208984 384.57022461 276.19208984 384.57022461 276.66552734 385.73803711 C277.40696328 387.61343388 278.09030952 389.51238363 278.72802734 391.42553711 C298.45921266 393.89683865 327.58855051 384.06606842 343.53662109 372.24194336 C344.25978516 371.6425293 344.98294922 371.04311523 345.72802734 370.42553711 C346.49590576 369.79107666 346.49590576 369.79107666 347.27929688 369.14379883 C354.29997481 363.30938019 361.11619252 357.24601447 367.83740234 351.07006836 C369.72802734 349.42553711 369.72802734 349.42553711 371.72802734 348.42553711 C371.72802734 347.76553711 371.72802734 347.10553711 371.72802734 346.42553711 C372.28232422 346.23475586 372.83662109 346.04397461 373.40771484 345.84741211 C376.74732653 343.80091606 378.6408527 340.8272256 380.85302734 337.67553711 C381.33022217 337.0095752 381.80741699 336.34361328 382.29907227 335.6574707 C383.2915265 334.27055644 384.28034088 332.88103084 385.265625 331.48901367 C386.65338957 329.53085238 388.05321576 327.58209009 389.45849609 325.63647461 C394.77462471 318.26482925 399.99164527 310.84865852 404.77490234 303.11694336 C414.91674958 286.79272199 426.48956365 274.2387149 445.70458984 269.33569336 C489.06155928 260.19050727 532.23538461 276.98664748 571.04052734 294.55053711 C572.16590912 295.05689697 572.16590912 295.05689697 573.31402588 295.57348633 C600.98857924 308.07691686 600.98857924 308.07691686 606.10302734 320.86303711 C608.89808061 336.79484075 603.90085316 357.44214758 595.10302734 370.91381836 C591.73729031 375.05087012 587.9352184 377.68094676 583.44287109 380.46850586 C579.08528804 383.6097276 575.31194631 387.37822222 571.48388672 391.13696289 C563.67439096 398.68376033 554.73784547 404.26193953 545.22802734 409.42553711 C543.80115601 410.20199585 543.80115601 410.20199585 542.34545898 410.99414062 C533.72897061 415.58888215 524.9136971 419.15821205 515.72802734 422.42553711 C501.70760201 427.42026309 501.70760201 427.42026309 489.31396484 435.47241211 C486.38007759 437.68833904 483.87342349 438.58869381 480.35302734 439.61303711 C479.27279297 439.9365918 478.19255859 440.26014648 477.07958984 440.59350586 C471.27936624 442.03342151 465.65896499 442.51099298 459.71289062 442.66577148 C450.39500367 442.92377846 441.54756912 443.92147407 432.44824219 445.96582031 C418.78758673 448.93836782 404.67124881 448.56700196 390.76318359 448.52319336 C388.99100281 448.52132282 387.2188215 448.51990193 385.44664001 448.51890564 C380.83544426 448.51513048 376.22428119 448.50534439 371.61309814 448.49420166 C366.88643841 448.48387854 362.15977328 448.47938493 357.43310547 448.47436523 C348.19806525 448.4637164 338.96304904 448.44670195 329.72802734 448.42553711 C332.65004175 450.37354671 335.28275996 451.53173409 338.54052734 452.81616211 C340.27882813 453.51032227 340.27882813 453.51032227 342.05224609 454.21850586 C344.47040936 455.17703391 346.88965352 456.13284033 349.31005859 457.08569336 C358.83863522 460.89922513 368.28734472 464.87251768 376.10302734 471.67553711 C377.02857422 472.44510742 377.95412109 473.21467773 378.90771484 474.00756836 C380.75741589 475.59339239 382.57694269 477.2152551 384.36083984 478.87475586 C400.58790546 492.95737275 423.90214123 498.48717039 444.91552734 499.23803711 C446.14078125 499.3018457 447.36603516 499.3656543 448.62841797 499.43139648 C464.37523082 500.02076059 478.86246388 495.10349069 493.79052734 490.67553711 C495.1528952 490.27303238 495.1528952 490.27303238 496.54278564 489.86239624 C502.61009375 488.06843634 508.67135072 486.25505396 514.72802734 484.42553711 C515.92766113 484.06347168 517.12729492 483.70140625 518.36328125 483.32836914 C530.19151998 479.70980566 541.21275201 475.14397166 552.28173828 469.63452148 C555.72538303 467.93263238 559.1942075 466.28552622 562.66455078 464.63891602 C564.45838436 463.78761069 566.25070515 462.93311042 568.04150391 462.07543945 C571.99307727 460.18419399 575.94701617 458.31262494 579.95458984 456.54272461 C592.16965904 451.0998552 603.41256125 444.17830704 614.8046875 437.20288086 C618.12095754 435.18664185 621.46311129 433.21980444 624.81860352 431.26977539 C627.5087651 429.70560413 630.18586551 428.12000129 632.86083984 426.5300293 C634.09415404 425.80049041 635.33109683 425.07704728 636.57177734 424.36010742 C650.23867478 416.42947782 662.45498708 405.66941375 669.72802734 391.42553711 C670.53433594 389.91926758 670.53433594 389.91926758 671.35693359 388.38256836 C674.17100424 382.35031771 675.08054818 378.02547126 673.65380859 371.47631836 C673.51349716 370.83187271 673.37318573 370.18742706 673.22862244 369.52345276 C671.70682542 362.82597625 669.65788629 356.30464392 667.44897461 349.80615234 C666.7815577 347.83656719 666.1340379 345.86114212 665.48779297 343.88452148 C665.05991231 342.60483757 664.63091725 341.32552561 664.20068359 340.04663086 C663.63232788 338.35171509 663.63232788 338.35171509 663.05249023 336.62255859 C660.88121993 331.38149229 657.83858437 327.39558614 653.85302734 323.42553711 C648.29058148 317.39341453 644.14776275 310.5072592 639.86523438 303.53295898 C634.4721874 294.79181221 628.63727477 286.9862391 621.22802734 279.86303711 C617.15902107 275.87689562 613.27394174 271.85337272 609.59130859 267.50366211 C607.12728849 264.75553067 604.48743831 262.19564098 601.85302734 259.61303711 C597.2665166 255.09931691 593.1529583 250.39468974 589.14599609 245.35131836 C585.72568559 241.21268739 582.06452091 237.31836691 578.38232422 233.41308594 C575.57249512 230.42990718 572.870251 227.42513874 570.29052734 224.23803711 C567.21020082 220.70136592 563.73542345 217.74879147 560.10302734 214.80053711 C559.57136963 214.35685791 559.03971191 213.91317871 558.49194336 213.45605469 C548.36764088 205.49419598 537.33821315 202.48314484 524.72802734 201.11303711 C522.186267 200.80521588 519.64459637 200.49665272 517.10302734 200.18725586 C515.99701172 200.06310303 514.89099609 199.9389502 513.75146484 199.81103516 C511.03828758 199.46509629 508.40537375 198.97535953 505.72802734 198.42553711 C497.2603394 197.64149193 490.11061935 198.68554518 482.12402344 201.35888672 Z M459.10302734 291.05053711 C458.13107422 291.28643555 457.15912109 291.52233398 456.15771484 291.76538086 C446.33641312 294.33951236 439.23752136 299.6838314 431.66552734 306.23803711 C431.10542969 306.70790039 430.54533203 307.17776367 429.96826172 307.66186523 C421.40658904 315.01299354 415.56840126 322.77291929 410.66552734 332.92553711 C405.1672568 344.21888093 398.41277435 352.97098674 389.79052734 362.05053711 C389.12601563 362.76209961 388.46150391 363.47366211 387.77685547 364.20678711 C381.23686563 371.13372106 374.9485907 377.34694444 366.22802734 381.36303711 C364.82822877 382.03739383 363.42849098 382.71187675 362.02880859 383.38647461 C361.31934082 383.72259766 360.60987305 384.0587207 359.87890625 384.4050293 C356.37527619 386.06736456 352.89169144 387.76909602 349.41552734 389.48803711 C348.74763184 389.81763428 348.07973633 390.14723145 347.39160156 390.48681641 C343.38007367 392.49953274 339.60507267 394.70055925 335.85302734 397.17553711 C326.78623337 403.1383836 318.25630887 405.35105158 307.47265625 405.6640625 C298.36674936 405.96415928 289.1015646 406.54136017 280.72802734 410.42553711 C277.97824006 413.41186523 276.72802734 416.36697531 276.72802734 420.42553711 C303.2868578 427.4743208 329.04056153 429.17156111 356.35455322 428.82714844 C359.63929004 428.79126497 362.92394165 428.77856898 366.20884037 428.76672935 C370.20617455 428.75183512 374.20342115 428.7268752 378.20068359 428.69897461 C378.93162798 428.69406384 379.66257236 428.68915306 380.41566658 428.68409348 C400.46321513 428.55907424 400.46321513 428.55907424 420.16552734 425.23803711 C421.16575928 424.99029541 422.16599121 424.74255371 423.1965332 424.48730469 C450.54902262 417.51409982 478.1008675 409.96949341 504.28491211 399.36474609 C508.15015726 397.87882643 512.08587935 396.61434525 516.01953125 395.32299805 C525.42070962 392.20791497 533.58810447 388.04414876 541.72802734 382.42553711 C542.29344238 382.03672363 542.85885742 381.64791016 543.44140625 381.24731445 C547.06920446 378.74149546 550.65321477 376.18412446 554.19628906 373.55981445 C555.4714933 372.61550478 556.75674938 371.68478785 558.04443359 370.75756836 C563.82411194 366.21555851 567.40539891 360.22203854 571.32177734 354.10522461 C573.79564913 350.25851155 576.54350529 346.6895686 579.45068359 343.15991211 C582.25177654 339.35659325 582.41043447 334.95867017 581.72802734 330.42553711 C579.00226429 323.11047911 573.18216114 319.30311947 566.72802734 315.42553711 C565.65681641 314.77584961 564.58560547 314.12616211 563.48193359 313.45678711 C544.09234668 302.18066996 521.61230098 297.9460186 499.9967041 292.91551208 C495.73364383 291.92037644 491.51597645 290.82119335 487.29443359 289.65991211 C477.444993 287.21300389 468.78548646 288.44869983 459.10302734 291.05053711 Z M165.13037109 366.03881836 C161.01079787 371.98931301 160.92452508 378.47215213 161.72802734 385.42553711 C163.27473693 390.66225386 165.36787919 395.51064363 167.72802734 400.42553711 C168.25783203 401.56249023 168.78763672 402.69944336 169.33349609 403.87084961 C173.15050179 411.25099839 176.81040583 414.86130742 184.72802734 417.42553711 C196.36309781 421.04665598 205.3327605 420.31403887 217.16552734 417.92553711 C218.37402344 417.68706055 219.58251953 417.44858398 220.82763672 417.20288086 C223.79565487 416.61631601 226.76232955 416.02370381 229.72802734 415.42553711 C229.72802734 414.76553711 229.72802734 414.10553711 229.72802734 413.42553711 C232.88308877 412.48933898 235.69389236 412.31982481 238.97802734 412.36303711 C239.87005859 412.37206055 240.76208984 412.38108398 241.68115234 412.39038086 C242.35662109 412.40198242 243.03208984 412.41358398 243.72802734 412.42553711 C243.72802734 413.08553711 243.72802734 413.74553711 243.72802734 414.42553711 C245.37802734 414.42553711 247.02802734 414.42553711 248.72802734 414.42553711 C249.56568991 405.39739607 248.34300248 399.62527409 242.72802734 392.42553711 C241.24664083 390.67144935 241.24664083 390.67144935 239.72802734 389.42553711 C239.06802734 389.42553711 238.40802734 389.42553711 237.72802734 389.42553711 C237.32583984 387.60022461 237.32583984 387.60022461 236.91552734 385.73803711 C234.70337644 378.96198265 229.72982683 374.05951219 225.00488281 368.89501953 C223.72802734 367.42553711 223.72802734 367.42553711 221.95849609 364.80444336 C218.68088975 361.3087126 214.86709169 359.89503781 210.47802734 358.11303711 C209.65689453 357.7540332 208.83576172 357.3950293 207.98974609 357.02514648 C194.81056363 351.54252304 175.32612519 355.74335029 165.13037109 366.03881836 Z M77.50927734 445.51538086 C72.4071108 451.66608586 68.4211635 458.66224873 64.2331543 465.44946289 C60.79217765 470.95480736 57.19664679 475.66733624 52.70068359 480.35913086 C50.7656874 482.38608727 49.00761073 484.46194768 47.29052734 486.67553711 C46.61183594 487.54952148 46.61183594 487.54952148 45.91943359 488.44116211 C43.05572602 493.21087833 42.3599451 498.37808136 41.54052734 503.80053711 C40.44946437 510.22935933 38.47251979 515.53996942 35.62988281 521.44091797 C32.41166311 528.48275677 30.57476563 535.88747805 28.66552734 543.36303711 C25.87592562 554.27800069 22.74748614 564.89705853 18.72802734 575.42553711 C17.85475358 578.0453584 17.52807322 579.9265674 17.33349609 582.63647461 C17.26453125 583.47049805 17.19556641 584.30452148 17.12451172 585.16381836 C16.988337 586.88191057 16.86032401 588.60067528 16.74169922 590.32006836 C14.70860567 613.96152787 1.96286848 640.9123101 -14.17431641 658.10131836 C-18.6746901 663.08776593 -21.8992638 668.66649489 -24.95947266 674.61303711 C-29.59624041 683.27235143 -36.11185571 690.6677714 -42.40478516 698.15991211 C-49.96003394 707.23681037 -56.05531676 716.21242613 -59.64697266 727.61303711 C-62.10768127 734.60975076 -68.18362884 740.10888594 -73.06103516 745.52709961 C-83.03590462 756.72520488 -88.11464797 767.76965956 -91.43408203 782.30029297 C-93.22728472 789.89438954 -96.22022167 795.40931765 -100.92822266 801.60522461 C-114.53409938 819.97315819 -118.9483054 842.70678767 -123.64697266 864.61303711 C-124.04166748 866.42058472 -124.04166748 866.42058472 -124.44433594 868.26464844 C-127.09321751 881.09310887 -126.30752324 890.59841887 -122.77197266 903.17553711 C-119.59725458 915.25575443 -117.9601487 924.94329478 -120.10791016 937.36694336 C-122.92336164 954.02954326 -121.62225369 969.17420397 -116.04418945 985.20336914 C-112.73105524 994.73740252 -110.6610596 1004.48040181 -108.60986328 1014.34936523 C-106.206048 1025.54391398 -102.89324085 1034.69707125 -96.83874512 1044.42224121 C-92.22219145 1051.93759392 -88.75176601 1059.92653794 -85.20947266 1067.98803711 C-75.49295616 1091.72184342 -75.49295616 1091.72184342 -56.70947266 1108.11303711 C-51.67325436 1110.88097864 -47.08646985 1113.91767412 -42.58447266 1117.48803711 C-34.15247392 1124.16121402 -25.28316612 1129.51844324 -15.78198242 1134.49829102 C-10.4887428 1137.27701993 -5.35088783 1140.27063451 -0.27197266 1143.42553711 C1.03741934 1141.36559237 1.03741934 1141.36559237 -0.02539062 1138.71777344 C-0.43418457 1137.57590576 -0.84297852 1136.43403809 -1.26416016 1135.25756836 C-1.59580925 1134.32409576 -1.59580925 1134.32409576 -1.93415833 1133.37176514 C-2.66432909 1131.32444377 -3.40572161 1129.28136991 -4.14697266 1127.23803711 C-4.65629423 1125.81298668 -5.16516109 1124.38777365 -5.67358398 1122.96240234 C-8.24650659 1115.78774515 -10.94111274 1108.69120217 -13.8605957 1101.64916992 C-18.49593924 1090.42383232 -21.55914626 1079.07285505 -24.32128906 1067.28076172 C-25.94464189 1060.40427303 -27.76211417 1053.77684063 -30.32226562 1047.17773438 C-40.16908843 1021.62017041 -42.85334546 990.2807488 -43.62353516 962.97241211 C-43.64727707 962.2031691 -43.67101898 961.43392609 -43.69548035 960.64137268 C-44.68628088 927.08734127 -43.02182534 894.12857174 -39.51263428 860.7489624 C-39.29540083 858.65172029 -39.09630739 856.5526185 -38.89941406 854.45336914 C-37.75158622 843.92526059 -34.74205945 834.21428516 -31.52197266 824.17553711 C-31.0026192 822.52615112 -30.48438619 820.8764119 -29.96728516 819.22631836 C-28.93188942 815.92787596 -27.88532519 812.63327525 -26.83105469 809.34082031 C-25.79269768 806.0897001 -24.78500529 802.83147725 -23.80273438 799.56298828 C-20.76046933 789.51263248 -17.17940157 779.9115567 -12.85009766 770.34472656 C-11.89387149 768.23118262 -10.95287606 766.11136146 -10.01416016 763.98999023 C-3.41811261 749.17062144 3.48206079 734.25502088 12.52099609 720.74584961 C17.45415211 713.2393153 20.99197157 705.47650362 24.54052734 697.23803711 C28.05722314 689.07910277 31.68892165 681.29204878 36.47802734 673.80053711 C44.62739179 660.99726398 50.20133818 647.5584589 55.47802734 633.36303711 C55.93822266 632.13294922 56.39841797 630.90286133 56.87255859 629.63549805 C62.64001651 613.78339614 65.55358091 598.21287778 67.72802734 581.55053711 C68.24255985 577.70889029 68.76286292 573.86802968 69.28271484 570.02709961 C69.40798553 569.09484558 69.53325623 568.16259155 69.662323 567.2020874 C70.62211631 560.09224303 71.70492806 553.0074116 72.85302734 545.92553711 C74.36049369 536.56102024 75.4550432 527.1798907 76.47491455 517.75305176 C78.46320182 499.46963078 81.6172504 483.1553219 87.93041992 465.84667969 C90.83900069 457.65969136 92.05889049 450.06254979 92.72802734 441.42553711 C93.04027516 439.4221369 93.3666577 437.42066194 93.72802734 435.42553711 C88.78930024 435.42553711 81.08240659 442.14984539 77.50927734 445.51538086 Z M262.72802734 451.42553711 C262.36451172 452.85833008 262.36451172 452.85833008 261.99365234 454.32006836 C260.19807643 461.2843701 258.24321582 468.0328083 255.64599609 474.74975586 C254.66124474 477.62020131 254.07724876 480.45233019 253.47802734 483.42553711 C251.17033822 492.93861726 244.97331992 499.32366611 238.10302734 505.98803711 C232.71147679 511.24609672 229.24979486 516.47337046 225.85205078 523.14575195 C217.20177878 540.12873167 204.82865712 555.33174264 189.50927734 566.90600586 C185.93583963 570.14317907 184.10047779 573.61444746 181.91552734 577.86303711 C181.04914128 579.47814984 180.17929996 581.09141346 179.30615234 582.70288086 C178.87496094 583.50064941 178.44376953 584.29841797 177.99951172 585.12036133 C173.17555859 593.86609202 167.75086464 601.77232548 160.91162109 609.08569336 C154.60919854 615.83909427 149.65999307 623.01931196 145.01318359 630.95629883 C140.81155221 638.08639485 135.87418571 644.20146412 130.29052734 650.30053711 C119.09566495 662.66073501 114.49642262 673.84824337 110.65966797 689.7980957 C109.08229999 696.27865137 107.12742538 702.51057377 104.84130859 708.77319336 C97.59634088 732.54177164 94.15822208 764.2523177 102.07177734 787.94116211 C104.1798241 794.28862147 104.71140178 800.66494889 105.29052734 807.30053711 C107.02366419 825.96904374 110.00559045 844.17330051 116.49365234 861.81616211 C118.76769364 868.46557399 118.73998416 874.14176225 118.29052734 881.05053711 C118.19118347 882.85122605 118.09351809 884.6520084 117.99755859 886.45288086 C117.95066895 887.31510254 117.9037793 888.17732422 117.85546875 889.06567383 C117.16273111 901.89326386 118.61355965 913.88443351 122.48583984 926.13647461 C127.74606687 943.07507574 128.47200422 958.24869533 127.72558594 975.78710938 C127.72795103 979.31180846 128.06603918 982.63633682 128.49130249 986.12654114 C128.87388581 989.8420678 128.87082683 993.54116694 128.86083984 997.27319336 C128.86179657 998.08815781 128.8627533 998.90312225 128.86373901 999.74278259 C128.86441484 1001.45791705 128.86260258 1003.17305416 128.85839844 1004.88818359 C128.85309077 1007.45733687 128.85833863 1010.0263114 128.86474609 1012.59545898 C128.86634832 1021.77355286 128.6038589 1030.82587261 127.75317383 1039.96728516 C127.72567954 1043.74841671 128.45897431 1046.60717938 129.66552734 1050.17553711 C133.7784495 1062.75708024 132.20375756 1075.85694653 129.85986328 1088.65136719 C128.67984032 1095.55285877 128.51331088 1102.30973695 128.41552734 1109.30053711 C128.13148239 1124.03671099 126.61922791 1138.59732327 124.97802734 1153.23803711 C124.85736908 1154.34749695 124.73671082 1155.45695679 124.61239624 1156.60003662 C122.53454858 1175.55402749 119.56388353 1194.321917 114.54052734 1212.73803711 C112.96237398 1218.71247483 112.2756399 1224.45949601 111.79052734 1230.61303711 C111.00596408 1240.17552117 108.32565147 1247.7853919 104.31396484 1256.49584961 C99.90886985 1266.64876908 97.51096712 1277.123807 95.17578125 1287.90380859 C93.16430361 1297.0708031 90.81346124 1303.92639487 85.72802734 1311.86303711 C78.41871305 1323.61647611 72.79786068 1336.56540161 67.72802734 1349.42553711 C75.47707395 1347.01637839 82.81513094 1343.90358023 90.22802734 1340.61303711 C91.98566406 1339.85023438 91.98566406 1339.85023438 93.77880859 1339.07202148 C102.33804164 1335.28232739 110.47382272 1331.24901026 116.97802734 1324.36303711 C117.63158203 1323.68112305 118.28513672 1322.99920898 118.95849609 1322.29663086 C119.54244141 1321.67916992 120.12638672 1321.06170898 120.72802734 1320.42553711 C121.57365234 1319.60053711 122.41927734 1318.77553711 123.29052734 1317.92553711 C125.941829 1315.20625336 128.43564725 1312.38685283 130.91552734 1309.51147461 C132.06477764 1308.18884603 133.22979952 1306.87962757 134.41552734 1305.58959961 C156.52357286 1281.33216078 160.14976341 1251.32296302 159.88818359 1219.66381836 C159.88187832 1217.89910724 159.87665003 1216.134392 159.87242126 1214.36967468 C159.85925709 1209.75679781 159.83493709 1205.14405899 159.80706787 1200.53125 C159.75847594 1192.32548956 159.72618784 1184.1196795 159.70068359 1175.91381836 C159.69739862 1175.02771818 159.69411366 1174.141618 159.69072914 1173.22866631 C159.65327562 1161.8383061 159.81715655 1150.48681306 160.27490234 1139.10522461 C160.71026006 1128.24983422 160.69449953 1117.53406465 160.05883789 1106.68896484 C159.91299966 1104.1948082 159.78695391 1101.70019418 159.66357422 1099.20483398 C159.23126464 1090.87028154 158.61244021 1082.56734351 157.75537109 1074.26538086 C157.67828415 1073.51311722 157.6011972 1072.76085358 157.52177429 1071.98579407 C156.94271806 1066.6690587 156.05771504 1061.43611421 155.10302734 1056.17553711 C153.10607862 1044.05737414 153.53379882 1031.78411689 153.75097656 1019.5456543 C153.96668731 1005.53921493 152.30262875 992.45247243 149.35302734 978.73803711 C145.88857862 962.01271297 143.4340933 945.11281849 141.79052734 928.11303711 C141.00773778 920.06433035 139.31328204 912.26138335 137.49194336 904.38916016 C137.27981201 903.47046143 137.06768066 902.5517627 136.84912109 901.60522461 C136.65761475 900.79811035 136.4661084 899.99099609 136.26879883 899.15942383 C135.03403253 892.9170252 134.55120351 886.65012668 134.22802734 880.30444336 C134.16711914 879.18814796 134.16711914 879.18814796 134.10498047 878.04930115 C133.97667657 875.6956803 133.85192726 873.34189362 133.72802734 870.98803711 C133.19986195 859.63091746 133.19986195 859.63091746 132.18505859 848.31225586 C131.72661855 844.41355631 131.49161108 840.59985632 131.41552734 836.67553711 C131.37814453 835.42256836 131.34076172 834.16959961 131.30224609 832.87866211 C131.87333469 821.44619063 137.70350529 810.13953451 142.04052734 799.67553711 C142.62924886 798.2470487 143.2176249 796.81841787 143.80566406 795.38964844 C144.67212039 793.28477175 145.53905457 791.1801076 146.40856934 789.07649231 C147.89451671 785.47683044 149.34979275 781.86892098 150.74755859 778.23413086 C155.46850446 766.0334971 161.93263742 754.91005531 168.96630859 743.89819336 C172.42111019 738.4711361 175.42832165 733.10934224 177.91552734 727.17553711 C186.56522334 706.60848217 197.9711468 687.33949706 209.72802734 668.42553711 C210.24671387 667.58958008 210.76540039 666.75362305 211.29980469 665.89233398 C216.87563865 656.95767538 222.76147702 648.45024148 229.31787109 640.20092773 C236.97488223 630.5607295 244.5184068 620.84341378 251.72802734 610.86303711 C252.24341064 610.14994385 252.75879395 609.43685059 253.28979492 608.70214844 C260.64335315 598.53018675 260.64335315 598.53018675 266.66552734 587.55053711 C268.61366841 583.51691867 270.72004259 579.82264973 273.22802734 576.11303711 C289.63616039 550.78118258 298.7534234 510.90034024 293.35595703 481.39135742 C291.5093204 473.01046811 286.91038299 466.32575984 281.52880859 459.73022461 C279.72802734 457.42553711 279.72802734 457.42553711 278.85302734 454.73803711 C277.88749464 452.12987277 277.88749464 452.12987277 274.85302734 451.11303711 C270.53199622 450.16241026 266.98900227 450.47865379 262.72802734 451.42553711 Z " fill="#BC0400" transform="translate(588.27197265625,341.574462890625)"/>
<path d="M0 0 C-1.32120828 2.93230193 -2.74638197 4.98664899 -5.0390625 7.234375 C-5.90917969 8.09482422 -5.90917969 8.09482422 -6.796875 8.97265625 C-7.40015625 9.55917969 -8.0034375 10.14570312 -8.625 10.75 C-9.23601563 11.35199219 -9.84703125 11.95398438 -10.4765625 12.57421875 C-11.97988624 14.05405305 -13.48934856 15.52764676 -15 17 C-15.66 16.67 -16.32 16.34 -17 16 C-3.38297872 0 -3.38297872 0 0 0 Z " fill="#880100" transform="translate(671,755)"/>
<path d="M0 0 C0 3 0 3 -2.3359375 5.69921875 C-3.34119508 6.70314662 -4.35458968 7.6989775 -5.375 8.6875 C-5.88289062 9.19861328 -6.39078125 9.70972656 -6.9140625 10.23632812 C-10.73300859 14 -10.73300859 14 -13 14 C-11.47238013 10.37190281 -9.29392861 8.05653702 -6.5 5.3125 C-5.7059375 4.52488281 -4.911875 3.73726562 -4.09375 2.92578125 C-2 1 -2 1 0 0 Z " fill="#880200" transform="translate(1014,619)"/>
<path d="M0 0 C-1.47721422 3.45201639 -3.43794001 5.64961936 -6.125 8.25 C-6.84945312 8.95640625 -7.57390625 9.6628125 -8.3203125 10.390625 C-8.87460937 10.92171875 -9.42890625 11.4528125 -10 12 C-10.66 11.67 -11.32 11.34 -12 11 C-10.89718873 9.72799029 -9.79269231 8.45744147 -8.6875 7.1875 C-8.07261719 6.47980469 -7.45773437 5.77210938 -6.82421875 5.04296875 C-2.32122371 0 -2.32122371 0 0 0 Z " fill="#870200" transform="translate(1000,543)"/>
</svg>
